<?xml version="1.0" encoding="UTF-8" standalone="no"?>
<!-- Created with Inkscape (http://www.inkscape.org/) -->

<svg
   width="164.84286mm"
   height="145.10077mm"
   viewBox="0 0 164.84286 145.10077"
   version="1.1"
   id="svg23163"
   inkscape:version="1.2.2 (732a01da63, 2022-12-09)"
   sodipodi:docname="gatos2.svg"
   xmlns:inkscape="http://www.inkscape.org/namespaces/inkscape"
   xmlns:sodipodi="http://sodipodi.sourceforge.net/DTD/sodipodi-0.dtd"
   xmlns="http://www.w3.org/2000/svg"
   xmlns:svg="http://www.w3.org/2000/svg">
  <sodipodi:namedview
     id="namedview23165"
     pagecolor="#ffffff"
     bordercolor="#000000"
     borderopacity="0.25"
     inkscape:showpageshadow="2"
     inkscape:pageopacity="0.0"
     inkscape:pagecheckerboard="0"
     inkscape:deskcolor="#d1d1d1"
     inkscape:document-units="mm"
     showgrid="false"
     inkscape:zoom="0.71624579"
     inkscape:cx="315.53414"
     inkscape:cy="326.00541"
     inkscape:window-width="1920"
     inkscape:window-height="991"
     inkscape:window-x="-9"
     inkscape:window-y="-9"
     inkscape:window-maximized="1"
     inkscape:current-layer="layer1" />
  <defs
     id="defs23160">
    <clipPath
       clipPathUnits="userSpaceOnUse"
       id="clipPath19649">
      <path
         d="M 0,0 H 1079.995 V 1919.998 H 0 Z"
         id="path19647" />
    </clipPath>
    <linearGradient
       x1="0"
       y1="0"
       x2="1"
       y2="0"
       gradientUnits="userSpaceOnUse"
       gradientTransform="matrix(0,-786.20929,-786.20929,0,539.99567,1156.0201)"
       spreadMethod="pad"
       id="linearGradient19659">
      <stop
         style="stop-opacity:1;stop-color:#ffb999"
         offset="0"
         id="stop19655" />
      <stop
         style="stop-opacity:1;stop-color:#ffd9b8"
         offset="1"
         id="stop19657" />
    </linearGradient>
    <clipPath
       clipPathUnits="userSpaceOnUse"
       id="clipPath19793">
      <path
         d="M 0,1920 H 1080 V 0 H 0 Z"
         id="path19791" />
    </clipPath>
    <clipPath
       clipPathUnits="userSpaceOnUse"
       id="clipPath19801">
      <path
         d="m 111,488.478 h 858 v -154 H 111 Z"
         id="path19799" />
    </clipPath>
    <clipPath
       clipPathUnits="userSpaceOnUse"
       id="clipPath19821">
      <path
         d="m 610.078,602.443 h 27.983 V 477.617 h -27.983 z"
         id="path19819" />
    </clipPath>
    <clipPath
       clipPathUnits="userSpaceOnUse"
       id="clipPath19841">
      <path
         d="M 600.006,1112.05 H 751.371 V 827.967 H 600.006 Z"
         id="path19839" />
    </clipPath>
    <clipPath
       clipPathUnits="userSpaceOnUse"
       id="clipPath19865">
      <path
         d="m 266.641,664.844 h 73.951 V 441.193 h -73.951 z"
         id="path19863" />
    </clipPath>
    <clipPath
       clipPathUnits="userSpaceOnUse"
       id="clipPath19885">
      <path
         d="M 452.019,806.668 H 784.921 V 511.183 H 452.019 Z"
         id="path19883" />
    </clipPath>
    <clipPath
       clipPathUnits="userSpaceOnUse"
       id="clipPath19913">
      <path
         d="M 165.976,1137.31 H 275.049 V 1020.19 H 165.976 Z"
         id="path19911" />
    </clipPath>
    <clipPath
       clipPathUnits="userSpaceOnUse"
       id="clipPath19933">
      <path
         d="m 424.667,1137.74 h 43.982 V 911.916 h -43.982 z"
         id="path19931" />
    </clipPath>
    <clipPath
       clipPathUnits="userSpaceOnUse"
       id="clipPath19961">
      <path
         d="M 223.47,1040.06 H 493.926 V 750.234 H 223.47 Z"
         id="path19959" />
    </clipPath>
    <clipPath
       clipPathUnits="userSpaceOnUse"
       id="clipPath19985">
      <path
         d="m 371.094,665.454 h 76.957 V 432.253 h -76.957 z"
         id="path19983" />
    </clipPath>
    <clipPath
       clipPathUnits="userSpaceOnUse"
       id="clipPath20045">
      <path
         d="m 881.928,717.028 h 28.82 V 449.583 h -28.82 z"
         id="path20043" />
    </clipPath>
    <clipPath
       clipPathUnits="userSpaceOnUse"
       id="clipPath20073">
      <path
         d="m 493.651,957.59 h 57.412 V 643.805 h -57.412 z"
         id="path20071" />
    </clipPath>
    <clipPath
       clipPathUnits="userSpaceOnUse"
       id="clipPath20097">
      <path
         d="m 824.655,711.745 h 30.651 V 427.751 h -30.651 z"
         id="path20095" />
    </clipPath>
    <clipPath
       clipPathUnits="userSpaceOnUse"
       id="clipPath20121">
      <path
         d="m 861.567,767.112 h 36.169 V 603.283 h -36.169 z"
         id="path20119" />
    </clipPath>
    <clipPath
       clipPathUnits="userSpaceOnUse"
       id="clipPath20137">
      <path
         d="M 664.336,655.107 H 807.28 V 433.87 H 664.336 Z"
         id="path20135" />
    </clipPath>
    <clipPath
       clipPathUnits="userSpaceOnUse"
       id="clipPath20157">
      <path
         d="m 923.186,1174.48 h 46.706 V 947.192 h -46.706 z"
         id="path20155" />
    </clipPath>
    <clipPath
       clipPathUnits="userSpaceOnUse"
       id="clipPath20185">
      <path
         d="M 640.062,1160.97 H 764.807 V 1057.36 H 640.062 Z"
         id="path20183" />
    </clipPath>
    <clipPath
       clipPathUnits="userSpaceOnUse"
       id="clipPath20205">
      <path
         d="M 719.001,1097.78 H 988.183 V 845.751 H 719.001 Z"
         id="path20203" />
    </clipPath>
    <clipPath
       clipPathUnits="userSpaceOnUse"
       id="clipPath20257">
      <path
         d="M 738.906,95.9167 H 1030.98 V 25.4777 H 738.906 Z"
         id="path20255" />
    </clipPath>
    <clipPath
       clipPathUnits="userSpaceOnUse"
       id="clipPath19649-9">
      <path
         d="M 0,0 H 1079.995 V 1919.998 H 0 Z"
         id="path19647-7" />
    </clipPath>
  </defs>
  <g
     inkscape:label="Camada 1"
     inkscape:groupmode="layer"
     id="layer1"
     transform="translate(-21.369876,-69.209256)">
    <g
       id="g19787"
       style="display:inline"
       transform="matrix(0.18033987,0,0,-0.17273848,6.5880341,272.08725)">
      <g
         id="g19789"
         clip-path="url(#clipPath19793)"
         style="display:inline">
        <g
           id="g19795">
          <g
             id="g19797" />
          <g
             id="g19809">
            <g
               clip-path="url(#clipPath19801)"
               opacity="0.100006"
               id="g19807">
              <g
                 transform="translate(969.0003,411.4777)"
                 id="g19805">
                <path
                   d="m 0,0 c 0,-42.526 -192.07,-77 -429,-77 -236.931,0 -429,34.474 -429,77 0,42.526 192.069,77 429,77 C -192.07,77 0,42.526 0,0"
                   style="fill:#402139;fill-opacity:1;fill-rule:nonzero;stroke:none"
                   id="path19803" />
              </g>
            </g>
          </g>
        </g>
        <g
           id="g19811"
           transform="translate(638.0609,602.4435)">
          <path
             d="m 0,0 c 0,-15.321 -0.432,-30.608 -2.094,-45.697 -1.096,-10.036 -2.758,-19.973 -5.151,-29.811 -4.221,-17.314 -11.067,-34.363 -20.737,-49.318 -9.173,-14.157 -20.838,-26.488 -35.196,-35.327 -10.501,-6.515 -26.22,-10.104 -33.665,-0.267 -8.375,11.101 2.16,25.923 7.146,38.884 10.734,27.816 -6.248,58.192 -25.059,81.356 -0.199,0.233 -0.365,0.465 -0.565,0.698 -19.043,23.263 -41.675,47.325 -43.037,77.368 L -0.398,28.049 C -0.199,18.743 0,9.338 0,0"
             style="fill:#391733;fill-opacity:1;fill-rule:nonzero;stroke:none"
             id="path19813" />
        </g>
        <g
           id="g19815">
          <g
             id="g19817" />
          <g
             id="g19829">
            <g
               clip-path="url(#clipPath19821)"
               opacity="0.100006"
               id="g19827">
              <g
                 transform="translate(638.0609,602.4435)"
                 id="g19825">
                <path
                   d="m 0,0 c 0,-15.321 -0.432,-30.608 -2.094,-45.697 -1.096,-10.036 -2.758,-19.973 -5.151,-29.811 -4.221,-17.314 -11.067,-34.363 -20.737,-49.318 9.803,27.086 15.885,55.533 17.979,84.28 0.664,9.339 0.898,18.678 0.732,28.05 C -9.405,-5.284 -5.185,-1.396 0,0"
                   style="fill:#ffffff;fill-opacity:1;fill-rule:nonzero;stroke:none"
                   id="path19823" />
              </g>
            </g>
          </g>
        </g>
        <g
           id="g19831"
           transform="translate(627.5257,957.9777)">
          <path
             d="m 0,0 c 17.979,-31.539 59.256,-40.611 85.478,-65.736 17.281,-16.551 26.885,-40.413 27.118,-64.275 0.133,-10.501 -1.562,-21.036 -5.217,-30.906 -0.964,-2.593 -2.061,-5.152 -3.29,-7.611 -13.893,-28.382 -43.736,-48.588 -75.375,-50.316 -14.489,15.42 -28.98,30.807 -50.249,47.69 14.024,7.511 30.641,7.943 46.129,11.566 15.519,3.588 31.936,12.562 35.526,28.082 1.064,4.586 0.864,9.139 -0.266,13.526 -2.791,11.1 -11.499,21.236 -20.771,28.681 -34.098,27.484 -81.09,39.016 -107.677,73.812 -30.076,39.415 -22.1,100.033 11.566,136.424 33.699,36.392 87.404,49.885 136.457,42.772 9.605,-1.396 19.973,-4.486 28.282,-9.637 8.774,-5.351 15.221,-12.995 16.052,-23.198 C 125.259,112.33 106.082,98.372 87.804,94.649 69.559,90.894 50.183,93.154 32.603,87.006 -0.764,75.374 -17.514,30.675 0,0"
             style="fill:#402139;fill-opacity:1;fill-rule:nonzero;stroke:none"
             id="path19833" />
        </g>
        <g
           id="g19835">
          <g
             id="g19837" />
          <g
             id="g19849">
            <g
               clip-path="url(#clipPath19841)"
               opacity="0.100006"
               id="g19847">
              <g
                 transform="translate(740.1214,827.967)"
                 id="g19845">
                <path
                   d="m 0,0 c -4.187,14.723 -11.564,28.481 -21.834,39.848 -18.91,21.004 -45.397,33.233 -68.96,48.853 -23.562,15.62 -46.061,37.654 -49.019,65.77 -2.094,20.339 6.878,40.944 21.501,55.234 14.624,14.257 34.364,22.599 54.503,25.956 18.345,3.057 39.349,3.157 51.978,16.783 7.711,8.308 10.269,20.871 6.946,31.638 8.774,-5.35 15.221,-12.994 16.052,-23.197 1.496,-18.544 -17.681,-32.503 -35.959,-36.225 -18.245,-3.755 -37.621,-1.495 -55.201,-7.643 -33.366,-11.632 -50.116,-56.331 -32.603,-87.006 C -94.616,98.472 -53.34,89.399 -27.118,64.274 -9.837,47.724 -0.232,23.862 0,0"
                   style="fill:#ffffff;fill-opacity:1;fill-rule:nonzero;stroke:none"
                   id="path19843" />
              </g>
            </g>
          </g>
        </g>
        <g
           id="g19851"
           transform="translate(699.7757,794.8)">
          <path
             d="M 0,0 C -5.317,7.644 -10.534,15.387 -15.753,23.131 -22.3,12.795 -35.261,6.447 -47.656,3.589 -63.144,-0.033 -79.761,-0.465 -93.785,-7.976 c 21.269,-16.883 35.76,-32.27 50.249,-47.691 23.164,1.263 45.364,12.463 61.051,29.512 C 12.297,-17.016 6.016,-8.674 0,0"
             style="fill:#402139;fill-opacity:1;fill-rule:nonzero;stroke:none"
             id="path19853" />
        </g>
        <g
           id="g19855"
           transform="translate(329.3197,634.8791)">
          <path
             d="m 0,0 c -1.528,-11.665 -3.091,-23.396 -4.818,-35.128 -7.312,-49.318 -17.747,-98.372 -42.972,-140.944 -3.955,-6.647 -8.475,-13.393 -14.889,-17.614 -0.665,-0.432 -1.329,-0.864 -2.027,-1.23 -7.511,-4.054 -18.079,-3.722 -23.43,2.925 -4.22,5.251 -4.187,12.662 -3.922,19.408 3.025,77.9 6.049,155.834 9.074,233.767 v 0.066 c 0.431,11.465 0.897,22.964 1.329,34.43 C -64.074,55.601 -43.138,31.307 -19.641,13.36 -13.261,8.508 -6.713,4.121 0,0"
             style="fill:#391733;fill-opacity:1;fill-rule:nonzero;stroke:none"
             id="path19857" />
        </g>
        <g
           id="g19859">
          <g
             id="g19861" />
          <g
             id="g19873">
            <g
               clip-path="url(#clipPath19865)"
               opacity="0.100006"
               id="g19871">
              <g
                 transform="translate(339.556,605.2014)"
                 id="g19869">
                <path
                   d="m 0,0 c -0.399,-4.453 -0.831,-8.906 -1.296,-13.359 -4.686,2.459 -9.272,5.085 -13.759,7.909 -7.311,-49.319 -17.747,-98.372 -42.971,-140.945 -3.955,-6.646 -8.475,-13.392 -14.889,-17.613 28.548,50.88 44.035,109.04 44.832,167.398 0.166,13.227 -0.398,26.487 -1.794,39.648 -0.2,2.326 -0.466,4.686 -0.766,7.012 7.645,17.514 21.038,7.844 26.388,-3.655 C 2.393,32.137 1.429,15.653 0,0"
                   style="fill:#ffffff;fill-opacity:1;fill-rule:nonzero;stroke:none"
                   id="path19867" />
              </g>
            </g>
          </g>
        </g>
        <g
           id="g19875"
           transform="translate(785.8187,493.2043)">
          <path
             d="m 0,0 c -0.864,-25.923 -13.294,-52.709 -36.191,-64.938 -10.17,-5.418 -25.457,-6.249 -30.743,3.987 -3.422,6.646 -0.83,14.623 0.3,22.001 4.154,27.551 -13.825,53.971 -35.594,71.386 -7.842,6.281 -16.217,11.764 -24.758,17.082 -7.577,4.719 -15.322,9.239 -22.866,14.024 -2.658,1.662 -5.284,3.391 -7.909,5.151 -4.753,3.191 -9.405,6.548 -13.891,10.137 -3.191,2.592 -6.315,5.384 -9.306,8.342 -25.856,-10.203 -53.673,-15.554 -81.556,-18.112 -5.051,-0.499 -10.103,-0.865 -15.121,-1.163 -19.442,-1.13 -39.216,-1.13 -58.791,0.464 -2.027,0.166 -4.021,0.332 -6.015,0.533 -0.598,0.066 -1.197,0.132 -1.794,0.199 h -0.166 c -9.605,-28.183 -19.21,-56.331 -28.814,-84.514 -4.021,-11.765 -8.209,-23.894 -16.484,-33.2 -6.348,-7.146 -15.72,-12.264 -25.026,-12.33 -2.824,-0.033 -5.616,0.431 -8.34,1.396 -9.406,3.39 -15.753,12.562 -18.379,22.2 -2.659,9.637 -2.127,19.807 -1.628,29.811 1.794,33.765 3.555,67.53 5.284,101.296 -0.433,0.199 -0.898,0.432 -1.33,0.632 -2.658,1.263 -5.284,2.558 -7.876,3.954 -0.199,0.101 -0.365,0.2 -0.565,0.3 -4.686,2.459 -9.272,5.085 -13.758,7.909 -2.228,1.362 -4.421,2.792 -6.581,4.254 -2.194,1.462 -4.321,2.991 -6.448,4.586 -29.578,21.868 -53.174,53.074 -65.137,87.471 v 0.067 c -4.022,11.432 -6.714,23.197 -7.944,35.095 -1.462,14.29 -0.764,28.747 2.393,43.037 3.389,15.255 16.285,22.865 31.306,25.989 0.034,0 0.1,0.034 0.166,0.034 2.659,0.531 5.351,0.93 8.077,1.196 0.066,0 0.132,0.033 0.199,0 9.105,0.931 18.511,0.465 26.72,-0.698 24.859,-3.589 48.022,-14.523 72.416,-20.472 9.969,-2.426 20.073,-3.988 30.176,-4.853 13.992,-1.196 28.082,-0.996 42.173,0.167 32.869,2.692 65.803,10.701 97.741,19.309 30.874,8.308 63.743,17.148 94.251,7.577 27.75,-8.707 48.255,-32.503 57.495,-60.253 0.033,-0.033 0.033,-0.066 0.066,-0.099 3.257,-6.547 6.049,-13.327 8.408,-20.14 9.472,-27.418 13.459,-56.498 23.33,-83.782 8.807,-24.394 22.167,-46.86 33.3,-70.323 C -10.702,56.696 -3.424,37.62 -0.898,17.979 -0.134,12.03 0.199,6.048 0,0"
             style="fill:#402139;fill-opacity:1;fill-rule:nonzero;stroke:none"
             id="path19877" />
        </g>
        <g
           id="g19879">
          <g
             id="g19881" />
          <g
             id="g19893">
            <g
               clip-path="url(#clipPath19885)"
               opacity="0.100006"
               id="g19891">
              <g
                 transform="translate(766.6087,567.9133)"
                 id="g19889">
                <path
                   d="m 0,0 c 8.508,-18.013 15.786,-37.089 18.312,-56.73 -2.825,7.412 -6.082,14.656 -9.637,21.602 -17.183,33.699 -40.911,63.875 -56.565,98.339 -12.562,27.717 -19.673,57.66 -32.136,85.377 -12.496,27.75 -31.938,54.337 -60.187,65.57 -54.735,21.801 -118.511,-20.804 -174.377,-6.447 32.868,2.692 65.803,10.701 97.74,19.309 30.874,8.308 63.743,17.148 94.251,7.577 27.75,-8.707 48.255,-32.503 57.495,-60.253 0.033,-0.033 0.033,-0.066 0.066,-0.099 3.257,-6.547 6.049,-13.327 8.408,-20.14 9.472,-27.418 13.46,-56.498 23.33,-83.782 C -24.493,45.929 -11.133,23.463 0,0"
                   style="fill:#ffffff;fill-opacity:1;fill-rule:nonzero;stroke:none"
                   id="path19887" />
              </g>
            </g>
          </g>
        </g>
        <g
           id="g19895"
           transform="translate(409.8451,775.4577)">
          <path
             d="m 0,0 c -23.363,-15.985 -50.216,-27.185 -77.767,-34.031 -30.575,-7.611 -62.114,-10.203 -93.686,-10.203 -1.462,14.291 -0.764,28.747 2.392,43.038 3.391,15.254 16.286,22.865 31.307,25.989 0.033,0 0.1,0.033 0.166,0.033 2.692,0.399 5.384,0.798 8.076,1.196 0.067,0 0.133,0.034 0.2,0 9.106,0.931 18.511,0.465 26.719,-0.697 24.86,-3.59 48.023,-14.524 72.417,-20.472 C -20.206,2.426 -10.104,0.864 0,0"
             style="fill:#2b0e27;fill-opacity:1;fill-rule:nonzero;stroke:none"
             id="path19897" />
        </g>
        <g
           id="g19899"
           transform="translate(275.0492,1035.1129)">
          <path
             d="m 0,0 c -1.994,-3.589 -3.988,-7.112 -6.016,-10.535 -39.249,-67.597 -81.19,-112.064 -125.224,-154.603 -32.569,85.909 -22.799,189.598 22.134,264.274 0.598,1.031 1.229,2.061 1.86,3.058 C -66.435,81.755 -27.318,37.621 0,0"
             style="fill:#391733;fill-opacity:1;fill-rule:nonzero;stroke:none"
             id="path19901" />
        </g>
        <g
           id="g19903"
           transform="translate(222.5062,992.4411)">
          <path
             d="M 0,0 C -52.941,10.834 -27.218,96.643 -55.201,128.681 -82.12,80.06 -98.105,-6.48 -70.721,-61.117 -52.841,-50.449 -26.122,-16.451 0,0"
             style="fill:#ff857b;fill-opacity:1;fill-rule:nonzero;stroke:none"
             id="path19905" />
        </g>
        <g
           id="g19907">
          <g
             id="g19909" />
          <g
             id="g19921">
            <g
               clip-path="url(#clipPath19913)"
               opacity="0.100006"
               id="g19919">
              <g
                 transform="translate(275.0492,1035.1129)"
                 id="g19917">
                <path
                   d="m 0,0 c -1.994,-3.589 -3.988,-7.112 -6.016,-10.535 -8.008,-2.858 -17.148,-3.789 -25.656,-4.387 -8.508,46.561 -37.388,88.934 -77.401,114.058 0.598,1.031 1.229,2.061 1.861,3.058 C -66.435,81.755 -27.318,37.621 0,0"
                   style="fill:#ffffff;fill-opacity:1;fill-rule:nonzero;stroke:none"
                   id="path19915" />
              </g>
            </g>
          </g>
        </g>
        <g
           id="g19923"
           transform="translate(450.9212,911.9157)">
          <path
             d="m 0,0 c -5.117,-14.623 -11.299,-28.847 -18.644,-42.373 -39.913,50.548 -89.731,84.58 -120.539,162.912 28.283,29.678 78.865,81.456 117.083,99.103 5.119,2.359 10.204,4.419 15.288,6.181 C 23.364,158.658 25.79,73.845 0,0"
             style="fill:#391733;fill-opacity:1;fill-rule:nonzero;stroke:none"
             id="path19925" />
        </g>
        <g
           id="g19927">
          <g
             id="g19929" />
          <g
             id="g19941">
            <g
               clip-path="url(#clipPath19933)"
               opacity="0.100006"
               id="g19939">
              <g
                 transform="translate(450.9212,911.9157)"
                 id="g19937">
                <path
                   d="m 0,0 c -2.358,1.33 -4.087,3.656 -5.649,5.949 -6.879,9.837 -13.759,19.741 -20.605,29.578 27.617,56.963 28.946,125.923 4.188,184.115 5.118,2.359 10.202,4.419 15.288,6.181 C 23.364,158.658 25.79,73.845 0,0"
                   style="fill:#ffffff;fill-opacity:1;fill-rule:nonzero;stroke:none"
                   id="path19935" />
              </g>
            </g>
          </g>
        </g>
        <g
           id="g19943"
           transform="translate(365.5443,1009.5563)">
          <path
             d="M 0,0 C 49.685,11.998 58.591,71.885 77.103,107.079 97.275,55.301 96.112,-23.729 74.876,-77.468 58.558,-64.54 23.696,-19.774 0,0"
             style="fill:#ff857b;fill-opacity:1;fill-rule:nonzero;stroke:none"
             id="path19945" />
        </g>
        <g
           id="g19947"
           transform="translate(493.9261,810.7189)">
          <path
             d="m 0,0 c -63.875,-39.98 -122.998,-56.73 -174.609,-60.485 -124.228,-9.007 -205.219,57.361 -205.219,57.361 5.882,74.045 33.3,172.516 109.372,213.394 22.333,12.031 48.887,19.076 80.326,19.076 C -21.27,229.346 0,0 0,0"
             style="fill:#402139;fill-opacity:1;fill-rule:nonzero;stroke:none"
             id="path19949" />
        </g>
        <g
           id="g19951"
           transform="translate(277.1097,831.008)">
          <path
             d="m 0,0 c -13.526,0 -24.527,-4.752 -24.527,-10.602 0,-1.461 1.376,-3.302 3.438,-5.24 9.927,-9.327 25.057,-10.295 36.672,-3.181 4.933,3.021 8.943,6.169 8.943,8.421 C 24.526,-4.752 13.56,0 0,0"
             style="fill:#ff857b;fill-opacity:1;fill-rule:nonzero;stroke:none"
             id="path19953" />
        </g>
        <g
           id="g19955">
          <g
             id="g19957" />
          <g
             id="g19969">
            <g
               clip-path="url(#clipPath19961)"
               opacity="0.100006"
               id="g19967">
              <g
                 transform="translate(319.3167,750.2336)"
                 id="g19965">
                <path
                   d="m 0,0 c 57.494,8.807 112.861,31.705 159.422,66.601 -2.825,71.784 -40.944,143.17 -101.629,180.459 -45.331,27.849 -101.928,35.892 -153.64,23.695 22.333,12.031 48.887,19.076 80.326,19.076 168.861,0 190.13,-229.346 190.13,-229.346 C 110.734,20.505 51.611,3.755 0,0"
                   style="fill:#ffffff;fill-opacity:1;fill-rule:nonzero;stroke:none"
                   id="path19963" />
              </g>
            </g>
          </g>
        </g>
        <g
           id="g19971"
           transform="translate(363.7542,496.5832)">
          <path
             d="m 0,0 c -5.774,2.05 -12.096,-0.627 -17.414,-3.669 -6.548,-3.745 -12.727,-8.135 -18.418,-13.084 -4.8,-4.174 -9.322,-8.838 -12.234,-14.493 -2.913,-5.654 -4.074,-12.443 -2.002,-18.458 2.48,-7.199 9.241,-12.284 16.502,-14.579 7.26,-2.295 15.04,-2.199 22.646,-1.841 8.796,0.415 16.497,2.063 25.239,3.123"
             style="fill:#402139;fill-opacity:1;fill-rule:nonzero;stroke:none"
             id="path19973" />
        </g>
        <g
           id="g19975"
           transform="translate(247.4456,492.5724)">
          <path
             d="m 0,0 c -4.995,1.773 -10.463,-0.541 -15.064,-3.173 -5.665,-3.24 -11.009,-7.037 -15.933,-11.319 -4.152,-3.611 -8.064,-7.646 -10.584,-12.537 -2.52,-4.892 -3.523,-10.766 -1.732,-15.968 2.146,-6.229 7.996,-10.626 14.277,-12.612 6.28,-1.986 13.01,-1.904 19.59,-1.592 7.609,0.358 14.271,1.784 21.834,2.701"
             style="fill:#391733;fill-opacity:1;fill-rule:nonzero;stroke:none"
             id="path19977" />
        </g>
        <g
           id="g19979">
          <g
             id="g19981" />
          <g
             id="g19993">
            <g
               clip-path="url(#clipPath19985)"
               opacity="0.100006"
               id="g19991">
              <g
                 transform="translate(443.3773,562.0978)"
                 id="g19989">
                <path
                   d="M 0,0 C -0.598,0.066 -1.196,0.133 -1.794,0.199 H -1.96 c -9.604,-28.182 -19.21,-56.331 -28.813,-84.513 -4.022,-11.765 -8.209,-23.895 -16.485,-33.201 -6.347,-7.145 -15.72,-12.263 -25.025,-12.33 7.179,5.616 13.095,13.46 17.813,21.403 12.065,20.172 19.575,42.705 26.255,65.238 C -13.957,4.818 -3.058,53.805 4.354,103.356 5.385,68.86 3.922,34.297 0,0"
                   style="fill:#ffffff;fill-opacity:1;fill-rule:nonzero;stroke:none"
                   id="path19987" />
              </g>
            </g>
          </g>
        </g>
        <g
           id="g19995"
           transform="translate(250.5394,875.7297)">
          <path
             d="m 0,0 c 0,-28.755 -23.312,-52.066 -52.066,-52.066 -28.756,0 -52.066,23.311 -52.066,52.066 0,28.755 23.31,52.066 52.066,52.066 C -23.312,52.066 0,28.755 0,0"
             style="fill:#ffe05b;fill-opacity:1;fill-rule:nonzero;stroke:none"
             id="path19997" />
        </g>
        <g
           id="g19999"
           transform="translate(240.2923,875.7297)">
          <path
             d="m 0,0 c 0,-23.096 -18.724,-41.819 -41.819,-41.819 -23.096,0 -41.819,18.723 -41.819,41.819 0,23.096 18.723,41.819 41.819,41.819 C -18.724,41.819 0,23.096 0,0"
             style="fill:#391733;fill-opacity:1;fill-rule:nonzero;stroke:none"
             id="path20001" />
        </g>
        <g
           id="g20003"
           transform="translate(414.2152,875.7297)">
          <path
             d="m 0,0 c 0,-28.755 -23.311,-52.066 -52.066,-52.066 -28.755,0 -52.066,23.311 -52.066,52.066 0,28.755 23.311,52.066 52.066,52.066 C -23.311,52.066 0,28.755 0,0"
             style="fill:#ffe05b;fill-opacity:1;fill-rule:nonzero;stroke:none"
             id="path20005" />
        </g>
        <g
           id="g20007"
           transform="translate(403.9681,875.7297)">
          <path
             d="m 0,0 c 0,-23.096 -18.723,-41.819 -41.819,-41.819 -23.096,0 -41.82,18.723 -41.82,41.819 0,23.096 18.724,41.819 41.82,41.819 C -18.723,41.819 0,23.096 0,0"
             style="fill:#391733;fill-opacity:1;fill-rule:nonzero;stroke:none"
             id="path20009" />
        </g>
        <g
           id="g20011"
           transform="translate(169.7396,877.945)">
          <path
             d="m 0,0 c 0,-5.812 -4.712,-10.523 -10.524,-10.523 -5.812,0 -10.524,4.711 -10.524,10.523 0,5.812 4.712,10.524 10.524,10.524 C -4.712,10.524 0,5.812 0,0"
             style="fill:#ffffff;fill-opacity:1;fill-rule:nonzero;stroke:none"
             id="path20013" />
        </g>
        <g
           id="g20015"
           transform="translate(336.7386,877.945)">
          <path
             d="m 0,0 c 0,-5.812 -4.711,-10.523 -10.523,-10.523 -5.813,0 -10.525,4.711 -10.525,10.523 0,5.812 4.712,10.524 10.525,10.524 C -4.711,10.524 0,5.812 0,0"
             style="fill:#ffffff;fill-opacity:1;fill-rule:nonzero;stroke:none"
             id="path20017" />
        </g>
        <g
           id="g20019"
           transform="translate(336.3451,807.2795)">
          <path
             d="m 0,0 c 27.491,11.244 54.026,24.109 82.235,33.66 28.288,9.578 57.121,15.619 86.006,22.909 1.535,0.388 0.844,2.52 -0.637,2.309 C 137.493,54.587 107.405,45.112 78.797,34.987 52.057,25.523 24.25,14.873 -0.03,0.071 -0.066,0.049 -0.043,-0.017 0,0"
             style="fill:#ffffff;fill-opacity:1;fill-rule:nonzero;stroke:none"
             id="path20021" />
        </g>
        <g
           id="g20023"
           transform="translate(345.68,786.4587)">
          <path
             d="m 0,0 c 54.248,23.526 108.782,32.068 167.585,32.317 1.56,0.007 1.518,2.276 0,2.395 C 110.741,39.187 50.803,24.959 -0.138,0.236 -0.298,0.158 -0.157,-0.067 0,0"
             style="fill:#ffffff;fill-opacity:1;fill-rule:nonzero;stroke:none"
             id="path20025" />
        </g>
        <g
           id="g20027"
           transform="translate(217.847,809.7663)">
          <path
             d="m 0,0 c -38.745,25.695 -87.616,33.448 -132.445,21.185 -0.984,-0.269 -0.569,-1.736 0.42,-1.521 45.981,9.992 90.888,3.17 131.918,-19.849 C 0.014,-0.252 0.115,-0.075 0,0"
             style="fill:#ffffff;fill-opacity:1;fill-rule:nonzero;stroke:none"
             id="path20029" />
        </g>
        <g
           id="g20031"
           transform="translate(209.8939,794.3234)">
          <path
             d="m 0,0 c -42.854,13.302 -90.611,5.808 -127.661,-19.386 -0.615,-0.418 -0.058,-1.406 0.59,-1.009 C -88.077,3.519 -44.55,10.158 -0.088,-0.319 0.12,-0.368 0.203,-0.063 0,0"
             style="fill:#ffffff;fill-opacity:1;fill-rule:nonzero;stroke:none"
             id="path20033" />
        </g>
        <g
           id="g20035"
           transform="translate(896.0374,471.7169)">
          <path
             d="m 0,0 c -2.44,-7.756 -5.417,-15.647 -10.197,-22.134 -1.538,-2.072 -3.278,-4.012 -5.216,-5.75 -7.991,-7.188 -20.931,-9.897 -29.557,-3.511 -7.355,5.416 -9.495,15.28 -11.1,24.241 -11.768,65.23 -23.537,130.462 -35.307,195.693 l 82.249,91.275 C -6.787,268.38 -4.446,256.879 -2.174,245.311 13.775,163.362 25.109,78.806 0,0"
             style="fill:#ff7238;fill-opacity:1;fill-rule:nonzero;stroke:none"
             id="path20037" />
        </g>
        <g
           id="g20039">
          <g
             id="g20041" />
          <g
             id="g20053">
            <g
               clip-path="url(#clipPath20045)"
               opacity="0.300003"
               id="g20051">
              <g
                 transform="translate(896.0374,471.7169)"
                 id="g20049">
                <path
                   d="m 0,0 c -2.44,-7.756 -5.417,-15.647 -10.197,-22.134 18.423,82.217 20.361,174.931 -3.912,254.238 4.213,4.647 8.158,9.027 11.935,13.207 C 13.775,163.362 25.109,78.806 0,0"
                   style="fill:#ffffff;fill-opacity:1;fill-rule:nonzero;stroke:none"
                   id="path20047" />
              </g>
            </g>
          </g>
        </g>
        <g
           id="g20055"
           transform="translate(610.2718,498.0304)">
          <path
             d="M 0,0 C 72.954,-34.672 157.778,-43.699 236.416,-25.143 225.517,4.18 214.65,33.502 203.75,62.823 150.021,49.751 94.453,44.334 39.252,46.742 26.514,47.311 12.806,48.046 2.006,41.226 -8.794,34.404 -19.191,9.128 0,0"
             style="fill:#ff7238;fill-opacity:1;fill-rule:nonzero;stroke:none"
             id="path20057" />
        </g>
        <g
           id="g20059"
           transform="translate(582.7552,475.4289)">
          <path
             d="m 0,0 c -21.767,-7.957 -45.905,-8.961 -68.374,-3.41 -12.07,2.941 -23.672,7.79 -34.17,14.443 -30.091,19.025 -50.587,52.492 -53.897,87.933 -5.249,56.772 30.526,108.462 44.402,163.797 11.568,46.273 7.354,96.392 -11.837,140.091 -5.616,12.772 -12.537,25.176 -15.112,38.884 -2.608,13.708 0.034,29.456 10.765,38.383 10.666,8.86 26.649,8.426 39.12,2.04 1.404,-0.702 2.775,-1.472 4.079,-2.341 12.905,-8.492 21.231,-22.301 27.918,-36.243 31.696,-66.334 33.869,-146.143 5.818,-214.082 -8.594,-20.83 -19.861,-40.522 -28.889,-61.119 -2.875,-6.586 -5.55,-13.272 -7.823,-20.127 -9.395,-28.185 -11.301,-61.052 4.681,-86.094 4.213,-6.587 9.964,-12.237 16.55,-16.617 C -48.313,33.2 -23.204,30.727 -6.52,44.937 -4.38,31.161 -2.273,17.386 0,0"
             style="fill:#ff8b4c;fill-opacity:1;fill-rule:nonzero;stroke:none"
             id="path20061" />
        </g>
        <g
           id="g20063"
           transform="translate(582.7552,475.4289)">
          <path
             d="m 0,0 c -21.767,-7.957 -45.905,-8.961 -68.374,-3.41 -2.708,16.181 -2.14,32.966 1.605,48.948 C -48.313,33.2 -23.204,30.727 -6.52,44.937 -4.38,31.161 -2.273,17.386 0,0"
             style="fill:#ff7238;fill-opacity:1;fill-rule:nonzero;stroke:none"
             id="path20065" />
        </g>
        <g
           id="g20067">
          <g
             id="g20069" />
          <g
             id="g20081">
            <g
               clip-path="url(#clipPath20073)"
               opacity="0.300003"
               id="g20079">
              <g
                 transform="translate(531.4671,704.924)"
                 id="g20077">
                <path
                   d="m 0,0 c -8.594,-20.83 -19.861,-40.522 -28.889,-61.119 1.271,7.59 2.976,15.08 4.915,22.435 7.456,28.32 18.691,55.602 25.21,84.155 16.116,70.481 1.204,147.246 -39.051,207.195 1.404,-0.703 2.775,-1.472 4.079,-2.341 12.905,-8.492 21.231,-22.301 27.918,-36.243 C 25.878,147.748 28.051,67.939 0,0"
                   style="fill:#ffffff;fill-opacity:1;fill-rule:nonzero;stroke:none"
                   id="path20075" />
              </g>
            </g>
          </g>
        </g>
        <g
           id="g20083"
           transform="translate(800.8821,433.8693)">
          <path
             d="M 0,0 C -1.537,-1.571 -3.243,-2.942 -5.081,-4.079 -12.37,-8.56 -21.063,-9.93 -29.522,-11.2 c -42.964,-6.521 -87.064,-13.007 -129.493,-3.679 -42.428,9.362 -83.419,38.217 -94.218,80.277 l 50.051,101.374 c 14.311,24.808 39.085,42.997 66.636,50.553 12.504,3.445 25.576,4.715 38.517,3.41 41.425,-4.145 79.138,-34.237 92.38,-73.723 C 7.59,107.526 -4.346,60.784 -34.905,32.499 -18.857,34.806 3.076,33.201 6.119,17.286 7.323,11 4.514,4.681 0,0"
             style="fill:#ff8b4c;fill-opacity:1;fill-rule:nonzero;stroke:none"
             id="path20085" />
        </g>
        <g
           id="g20087"
           transform="translate(851.3021,441.5255)">
          <path
             d="m 0,0 c -2.207,-5.315 -5.851,-10.23 -10.398,-13.775 -4.347,-3.343 -9.496,-5.416 -14.979,-5.283 -17.754,0.435 -26.948,20.931 -31.964,37.983 -12.036,41.124 -24.072,82.249 -36.108,123.374 l 64.16,122.871 2.642,5.049 C -8.593,192.517 1.639,112.976 3.879,33.201 4.18,21.967 4.279,10.365 0,0"
             style="fill:#ff8b4c;fill-opacity:1;fill-rule:nonzero;stroke:none"
             id="path20089" />
        </g>
        <g
           id="g20091">
          <g
             id="g20093" />
          <g
             id="g20105">
            <g
               clip-path="url(#clipPath20097)"
               opacity="0.300003"
               id="g20103">
              <g
                 transform="translate(851.3021,441.5255)"
                 id="g20101">
                <path
                   d="m 0,0 c -2.207,-5.315 -5.851,-10.23 -10.398,-13.775 7.389,23.571 5.048,50.286 2.44,75.396 -7.121,67.838 -18.689,208.598 -18.689,208.598 C -8.593,192.517 1.639,112.976 3.879,33.201 4.18,21.967 4.279,10.365 0,0"
                   style="fill:#ffffff;fill-opacity:1;fill-rule:nonzero;stroke:none"
                   id="path20099" />
              </g>
            </g>
          </g>
        </g>
        <g
           id="g20107"
           transform="translate(892.9944,673.5627)">
          <path
             d="m 0,0 c -5.717,-25.177 -16.684,-49.049 -31.428,-70.28 -19.259,-27.851 -44.936,-51.189 -73.59,-67.104 7.623,-28.018 -8.024,-58.61 -31.729,-75.361 -23.705,-16.75 -53.764,-21.934 -82.784,-22.635 -41.894,-0.97 -102.645,-0.267 -121.636,49.249 -20.996,54.833 -6.653,118.86 26.647,167.24 33.302,48.347 83.32,82.884 135.779,109.231 3.711,10.031 7.723,20.127 11.936,30.259 6.52,15.547 13.575,31.194 20.864,46.975 34.905,-2.307 70.012,-1.638 106.421,0.702 16.384,-19.994 28.487,-43.365 35.842,-68.14 0.636,-2.173 1.271,-4.38 1.806,-6.587 C 6.119,63.058 7.021,30.692 0,0"
             style="fill:#ff8b4c;fill-opacity:1;fill-rule:nonzero;stroke:none"
             id="path20109" />
        </g>
        <g
           id="g20111"
           transform="translate(889.3167,773.6994)">
          <path
             d="m 0,0 c -54.967,-5.718 -111.303,1.304 -163.127,20.462 6.52,15.547 13.574,31.194 20.863,46.976 34.906,-2.308 70.013,-1.639 106.422,0.702 C -19.458,48.146 -7.355,24.775 0,0"
             style="fill:#ff7238;fill-opacity:1;fill-rule:nonzero;stroke:none"
             id="path20113" />
        </g>
        <g
           id="g20115">
          <g
             id="g20117" />
          <g
             id="g20129">
            <g
               clip-path="url(#clipPath20121)"
               opacity="0.300003"
               id="g20127">
              <g
                 transform="translate(892.9944,673.5627)"
                 id="g20125">
                <path
                   d="m 0,0 c -5.717,-25.177 -16.684,-49.049 -31.428,-70.28 17.787,51.69 22.602,107.86 13.407,161.757 5.116,0.1 10.666,0.769 16.149,2.072 C 6.119,63.058 7.021,30.692 0,0"
                   style="fill:#ffffff;fill-opacity:1;fill-rule:nonzero;stroke:none"
                   id="path20123" />
              </g>
            </g>
          </g>
        </g>
        <g
           id="g20131">
          <g
             id="g20133" />
          <g
             id="g20145">
            <g
               clip-path="url(#clipPath20137)"
               opacity="0.300003"
               id="g20143">
              <g
                 transform="translate(800.8821,433.8693)"
                 id="g20141">
                <path
                   d="m 0,0 c -1.203,3.845 -3.209,7.456 -5.851,10.432 -8.358,9.495 -21.631,13.407 -34.27,13.24 -12.605,-0.2 -24.875,-3.979 -36.945,-7.724 33.066,15.113 56.204,49.45 58.745,85.727 2.54,36.276 -15.213,73.088 -44.603,94.486 -21.097,15.347 -47.61,22.602 -73.622,21.164 12.504,3.445 25.576,4.715 38.517,3.41 41.425,-4.145 79.138,-34.237 92.38,-73.723 C 7.59,107.526 -4.346,60.784 -34.905,32.499 -18.857,34.806 3.076,33.201 6.119,17.286 7.323,11 4.514,4.681 0,0"
                   style="fill:#ffffff;fill-opacity:1;fill-rule:nonzero;stroke:none"
                   id="path20139" />
              </g>
            </g>
          </g>
        </g>
        <g
           id="g20147"
           transform="translate(948.43,947.1916)">
          <path
             d="M 0,0 C -5.617,-14.544 -12.305,-28.621 -20.128,-41.994 -58.611,10.131 -94.42,63.96 -122.839,143.735 c 29.422,28.921 68.808,61.353 107.826,77.836 5.216,2.206 10.399,4.113 15.581,5.718 C 28.687,158.781 28.353,73.422 0,0"
             style="fill:#ff7238;fill-opacity:1;fill-rule:nonzero;stroke:none"
             id="path20149" />
        </g>
        <g
           id="g20151">
          <g
             id="g20153" />
          <g
             id="g20165">
            <g
               clip-path="url(#clipPath20157)"
               opacity="0.149994"
               id="g20163">
              <g
                 transform="translate(948.43,947.1916)"
                 id="g20161">
                <path
                   d="m 0,0 c -2.341,1.404 -3.979,3.811 -5.483,6.152 -6.587,10.13 -13.174,20.295 -19.76,30.425 29.623,56.371 33.233,125.681 10.23,184.994 5.216,2.206 10.399,4.113 15.581,5.718 C 28.687,158.781 28.353,73.422 0,0"
                   style="fill:#ffffff;fill-opacity:1;fill-rule:nonzero;stroke:none"
                   id="path20159" />
              </g>
            </g>
          </g>
        </g>
        <g
           id="g20167"
           transform="translate(885.8401,1036.4952)">
          <path
             d="m 0,0 c 20.495,11.602 27.249,19.191 37.012,39.653 9.562,20.095 7.456,48.113 23.939,77.201 C 79.541,64.128 78.203,5.583 55.1,-47.778 39.151,-34.237 23.203,-20.696 0,0"
             style="fill:#ff9d94;fill-opacity:1;fill-rule:nonzero;stroke:none"
             id="path20169" />
        </g>
        <g
           id="g20171"
           transform="translate(764.8069,1077.4528)">
          <path
             d="m 0,0 c -1.371,-3.878 -2.775,-7.724 -4.213,-11.468 -27.684,-73.59 -61.888,-124.711 -98.499,-174.261 -46.607,79.808 -54.197,184.325 -22.032,265.905 0.433,1.137 0.868,2.241 1.336,3.344 C -79.508,70.045 -33.368,32.766 0,0"
             style="fill:#ff7238;fill-opacity:1;fill-rule:nonzero;stroke:none"
             id="path20173" />
        </g>
        <g
           id="g20175"
           transform="translate(723.1468,1033.0177)">
          <path
             d="M 0,0 C -32.899,24.474 -46.072,95.155 -79.541,111.839 -98.131,59.113 -96.793,-4.447 -73.69,-57.808 -57.741,-44.268 -23.203,-20.696 0,0"
             style="fill:#ff9d94;fill-opacity:1;fill-rule:nonzero;stroke:none"
             id="path20177" />
        </g>
        <g
           id="g20179">
          <g
             id="g20181" />
          <g
             id="g20193">
            <g
               clip-path="url(#clipPath20185)"
               opacity="0.149994"
               id="g20191">
              <g
                 transform="translate(764.8069,1077.4528)"
                 id="g20189">
                <path
                   d="m 0,0 c -1.371,-3.878 -2.775,-7.724 -4.213,-11.468 -7.456,-4.179 -16.383,-6.62 -24.742,-8.627 -16.182,44.77 -51.89,82.016 -95.789,100.271 0.433,1.137 0.868,2.241 1.336,3.344 C -79.508,70.045 -33.368,32.766 0,0"
                   style="fill:#ffffff;fill-opacity:1;fill-rule:nonzero;stroke:none"
                   id="path20187" />
              </g>
            </g>
          </g>
        </g>
        <g
           id="g20195"
           transform="translate(988.1829,867.0153)">
          <path
             d="m 0,0 c -12.771,-7.991 -25.343,-15.045 -37.714,-21.265 -199.638,-100.504 -344.41,18.156 -344.41,18.156 5.984,75.428 34.17,176.033 112.942,216.221 21.867,11.167 47.645,17.654 77.903,17.654 C -21.397,230.766 0,0 0,0"
             style="fill:#ff8b4c;fill-opacity:1;fill-rule:nonzero;stroke:none"
             id="path20197" />
        </g>
        <g
           id="g20199">
          <g
             id="g20201" />
          <g
             id="g20213">
            <g
               clip-path="url(#clipPath20205)"
               opacity="0.300003"
               id="g20211">
              <g
                 transform="translate(977.1497,873.4011)"
                 id="g20209">
                <path
                   d="m 0,0 c -3.644,73.991 -39.553,151.359 -100.705,189.073 -45.236,27.918 -95.222,34.772 -157.443,17.653 21.866,11.167 47.644,17.654 77.902,17.654 C -10.364,224.38 11.033,-6.386 11.033,-6.386 -1.738,-14.377 -14.31,-21.431 -26.681,-27.65 -16.884,-19.225 -7.757,-10.13 0,0"
                   style="fill:#ffffff;fill-opacity:1;fill-rule:nonzero;stroke:none"
                   id="path20207" />
              </g>
            </g>
          </g>
        </g>
        <g
           id="g20215"
           transform="translate(885.9935,501.9982)">
          <path
             d="m 0,0 c 5.81,2.063 12.169,-0.63 17.52,-3.69 6.586,-3.769 12.802,-8.185 18.529,-13.164 4.828,-4.2 9.377,-8.891 12.308,-14.581 2.93,-5.688 4.097,-12.519 2.014,-18.569 -2.495,-7.243 -9.298,-12.358 -16.602,-14.667 -7.305,-2.309 -40.907,-3.08 -48.175,1.29"
             style="fill:#ff7238;fill-opacity:1;fill-rule:nonzero;stroke:none"
             id="path20217" />
        </g>
        <g
           id="g20219"
           transform="translate(832.0804,487.7882)">
          <path
             d="m 0,0 c 5.81,2.063 12.168,-0.63 17.52,-3.69 6.586,-3.768 12.801,-8.184 18.528,-13.164 4.829,-4.199 9.379,-8.891 12.308,-14.58 2.931,-5.689 4.098,-12.519 2.014,-18.57 -2.495,-7.243 -9.298,-12.358 -16.601,-14.667 -7.305,-2.308 -40.907,-3.08 -48.175,1.29"
             style="fill:#ff8b4c;fill-opacity:1;fill-rule:nonzero;stroke:none"
             id="path20221" />
        </g>
        <g
           id="g20223"
           transform="translate(806.8001,912.8371)">
          <path
             d="m 0,0 c -13.607,0 -24.675,-4.781 -24.675,-10.666 0,-1.471 1.384,-3.322 3.459,-5.272 9.987,-9.384 25.208,-10.357 36.895,-3.201 4.961,3.04 8.997,6.207 8.997,8.473 C 24.676,-4.781 13.642,0 0,0"
             style="fill:#402139;fill-opacity:1;fill-rule:nonzero;stroke:none"
             id="path20225" />
        </g>
        <g
           id="g20227"
           transform="translate(844.3558,916.3015)">
          <path
             d="m 0,0 c 12.271,8.694 22.41,19.206 36.132,25.941 7.177,3.523 14.849,6.276 22.649,8.057 8.297,1.893 16.699,1.183 24.604,4.274 3.256,1.273 3.721,5.999 0,7.102 C 68.671,49.734 49.899,41.485 36.745,34.835 22.275,27.52 6.025,15.947 -0.751,0.751 -0.948,0.309 -0.499,-0.354 0,0"
             style="fill:#402139;fill-opacity:1;fill-rule:nonzero;stroke:none"
             id="path20229" />
        </g>
        <g
           id="g20231"
           transform="translate(771.304,916.3015)">
          <path
             d="m 0,0 c -12.27,8.694 -22.409,19.206 -36.131,25.941 -7.177,3.523 -14.85,6.276 -22.649,8.057 -8.297,1.893 -16.699,1.183 -24.604,4.274 -3.257,1.273 -3.721,5.999 0,7.102 14.713,4.36 33.486,-3.889 46.64,-10.539 C -22.274,27.52 -6.024,15.947 0.751,0.751 0.948,0.309 0.499,-0.354 0,0"
             style="fill:#402139;fill-opacity:1;fill-rule:nonzero;stroke:none"
             id="path20233" />
        </g>
        <g
           id="g20235"
           transform="translate(753.1097,892.0305)">
          <path
             d="m 0,0 c -28.272,9.671 -55.681,21.026 -84.575,28.955 -28.975,7.95 -58.289,12.316 -87.729,17.934 -1.565,0.298 -0.995,2.482 0.503,2.357 C -141.307,46.712 -110.528,38.972 -81.2,30.49 -53.786,22.562 -25.232,13.507 0.026,0.073 0.063,0.053 0.044,-0.015 0,0"
             style="fill:#ffffff;fill-opacity:1;fill-rule:nonzero;stroke:none"
             id="path20237" />
        </g>
        <g
           id="g20239"
           transform="translate(744.9632,870.5695)">
          <path
             d="m 0,0 c -55.87,20.428 -111.144,25.79 -170.214,22.571 -1.566,-0.086 -1.66,2.196 -0.141,2.406 C -113.531,32.823 -52.494,22.07 0.124,0.245 0.289,0.176 0.162,-0.059 0,0"
             style="fill:#ffffff;fill-opacity:1;fill-rule:nonzero;stroke:none"
             id="path20241" />
        </g>
        <g
           id="g20243"
           transform="translate(857.4837,893.717)"
           style="display:inline">
          <path
             d="m 0,0 c 37.397,28.09 86.021,38.76 131.767,29.089 1.004,-0.213 0.674,-1.71 -0.331,-1.553 C 84.666,34.858 39.969,25.358 0.12,-0.18 0.002,-0.255 -0.109,-0.083 0,0"
             style="fill:#ffffff;fill-opacity:1;fill-rule:nonzero;stroke:none"
             id="path20245" />
        </g>
        <g
           id="g20247"
           transform="translate(866.3821,878.6765)">
          <path
             d="m 0,0 c 42.255,15.887 90.66,11.178 129.355,-11.94 0.642,-0.383 0.142,-1.409 -0.533,-1.048 C 88.251,8.729 44.145,12.83 0.107,-0.315 -0.099,-0.377 -0.201,-0.075 0,0"
             style="fill:#ffffff;fill-opacity:1;fill-rule:nonzero;stroke:none"
             id="path20249" />
        </g>
      </g>
    </g>
  </g>
</svg>
