<?xml version="1.0" standalone="no"?>
<!DOCTYPE svg PUBLIC "-//W3C//DTD SVG 20010904//EN"
 "http://www.w3.org/TR/2001/REC-SVG-20010904/DTD/svg10.dtd">
<svg version="1.0" xmlns="http://www.w3.org/2000/svg"
 width="956.000000pt" height="531.000000pt" viewBox="0 0 956.000000 531.000000"
 preserveAspectRatio="xMidYMid meet">

<g transform="translate(0.000000,531.000000) scale(0.100000,-0.100000)"
fill="#000000" stroke="none">
<path d="M1738 4202 c-76 -30 -138 -61 -138 -68 0 -8 54 10 142 46 103 42 145
55 151 47 6 -8 7 -5 3 6 -3 10 -6 21 -6 23 0 7 -14 3 -152 -54z"/>
<path d="M1902 4180 c0 -14 2 -19 5 -12 2 6 2 18 0 25 -3 6 -5 1 -5 -13z"/>
<path d="M4642 4063 c2 -10 23 -29 48 -43 l45 -25 -140 -7 c-77 -3 -167 -13
-200 -22 -150 -41 -286 -133 -369 -250 -75 -104 -128 -244 -104 -273 16 -19
28 -16 28 8 0 105 131 307 241 369 168 97 245 120 409 127 l125 6 -47 -51
c-33 -35 -48 -60 -48 -78 0 -26 1 -26 49 19 26 25 72 57 100 72 48 24 52 28
49 58 -3 29 -10 36 -77 70 -82 41 -114 47 -109 20z"/>
<path d="M1915 4042 c-16 -15 -242 -132 -254 -132 -6 0 -11 10 -11 22 0 12 -3
19 -6 15 -3 -3 -3 -20 1 -37 5 -25 10 -29 20 -20 8 7 19 9 24 6 10 -6 204 96
229 121 16 15 12 39 -3 25z"/>
<path d="M1621 4014 c0 -11 3 -14 6 -6 3 7 2 16 -1 19 -3 4 -6 -2 -5 -13z"/>
<path d="M1840 3949 c-47 -26 -93 -51 -102 -55 -10 -3 -18 -10 -18 -14 0 -7
64 -60 73 -60 3 0 41 21 86 46 51 28 81 51 81 62 0 12 3 13 8 5 5 -8 13 -9 22
-3 13 8 13 10 1 10 -8 0 -11 3 -8 7 4 3 -8 17 -25 30 -18 12 -32 22 -32 22 -1
-1 -39 -23 -86 -50z"/>
<path d="M1631 3974 c0 -11 3 -14 6 -6 3 7 2 16 -1 19 -3 4 -6 -2 -5 -13z"/>
<path d="M1680 3846 c0 -2 8 -10 18 -17 15 -13 16 -12 3 4 -13 16 -21 21 -21
13z"/>
<path d="M2054 3834 c-18 -14 -18 -15 4 -4 12 6 22 13 22 15 0 8 -5 6 -26 -11z"/>
<path d="M1939 3759 l-24 -20 28 17 c15 9 27 18 27 20 0 8 -8 4 -31 -17z"/>
<path d="M5776 3563 c-3 -3 -6 -18 -6 -33 0 -24 -3 -26 -30 -22 -43 6 -70 -21
-70 -68 0 -51 23 -69 83 -67 l47 2 0 92 c0 84 -7 113 -24 96z m-11 -98 c19
-29 2 -65 -29 -65 -37 0 -52 34 -31 66 19 29 42 28 60 -1z"/>
<path d="M6006 3563 c-3 -3 -6 -18 -6 -33 0 -24 -3 -26 -30 -22 -43 6 -70 -21
-70 -68 0 -51 23 -69 83 -67 l47 2 0 92 c0 84 -7 113 -24 96z m-11 -98 c19
-29 2 -65 -29 -65 -37 0 -52 34 -31 66 19 29 42 28 60 -1z"/>
<path d="M5364 3547 c-9 -24 1 -172 11 -172 6 0 11 15 13 33 3 29 6 32 37 32
65 0 88 88 29 110 -36 14 -84 12 -90 -3z m91 -47 c0 -21 -5 -26 -32 -28 -31
-3 -33 -1 -33 28 0 29 2 31 33 28 27 -2 32 -7 32 -28z"/>
<path d="M5840 3545 c0 -8 7 -15 15 -15 8 0 15 7 15 15 0 8 -7 15 -15 15 -8 0
-15 -7 -15 -15z"/>
<path d="M5537 3498 c-9 -7 -19 -27 -23 -43 -11 -56 45 -100 100 -79 30 11 18
30 -17 26 -22 -2 -38 2 -46 12 -12 14 -8 16 38 16 47 0 51 2 51 23 0 47 -63
74 -103 45z m57 -14 c28 -11 17 -24 -20 -24 -31 0 -35 2 -24 15 14 17 21 18
44 9z"/>
<path d="M5842 3443 c4 -86 22 -85 26 2 2 54 0 65 -13 65 -13 0 -15 -11 -13
-67z"/>
<path d="M6085 3490 c-58 -64 27 -157 94 -102 28 22 31 75 6 102 -24 26 -76
26 -100 0z m80 -20 c25 -28 7 -70 -30 -70 -37 0 -55 42 -30 70 10 11 23 20 30
20 7 0 20 -9 30 -20z"/>
<path d="M7640 3426 c0 -2 7 -9 15 -16 9 -7 15 -8 15 -2 0 5 -7 12 -15 16 -8
3 -15 4 -15 2z"/>
<path d="M7556 3398 c-3 -13 -5 -41 -5 -63 1 -34 3 -32 10 19 9 61 6 85 -5 44z"/>
<path d="M7653 3377 c-17 -7 -35 -15 -39 -20 -10 -10 58 13 71 24 11 11 8 11
-32 -4z"/>
<path d="M7790 3359 c0 -5 5 -7 10 -4 6 3 10 8 10 11 0 2 -4 4 -10 4 -5 0 -10
-5 -10 -11z"/>
<path d="M7888 3353 c12 -2 32 -2 45 0 12 2 2 4 -23 4 -25 0 -35 -2 -22 -4z"/>
<path d="M1475 3260 c-36 -86 -40 -131 -8 -82 12 16 25 22 53 22 28 0 41 -6
53 -22 8 -13 18 -20 23 -15 9 8 -59 180 -73 184 -6 2 -27 -37 -48 -87z m62 0
c11 -29 10 -30 -17 -30 -28 0 -29 1 -19 30 6 17 14 30 18 30 4 0 12 -13 18
-30z"/>
<path d="M3613 3305 c-27 -27 -43 -35 -70 -35 -53 0 -103 -54 -103 -110 0 -34
6 -48 34 -76 20 -20 44 -34 58 -34 14 0 33 -9 43 -20 22 -24 80 -42 112 -34
27 7 26 9 14 -34 -6 -20 -6 -32 0 -32 20 0 69 31 79 50 6 11 19 20 30 20 37 0
97 31 120 62 68 92 12 221 -102 235 -24 3 -55 14 -70 24 -15 11 -43 19 -68 19
-35 0 -48 -6 -77 -35z m15 -151 c4 -27 -26 -40 -46 -20 -21 20 -8 48 20 44 14
-2 24 -11 26 -24z m99 10 c8 -21 -19 -46 -40 -38 -17 6 -23 35 -10 47 12 13
44 7 50 -9z m99 1 c7 -18 -13 -45 -33 -45 -17 0 -27 24 -19 45 7 20 45 19 52
0z"/>
<path d="M7730 3320 c0 -15 15 -19 30 -9 8 5 13 9 10 10 -3 0 -13 2 -22 4 -10
2 -18 -1 -18 -5z"/>
<path d="M1637 3282 c-26 -29 -22 -88 7 -107 28 -18 77 -17 84 3 2 8 -8 12
-32 12 -29 0 -39 5 -45 23 -14 34 10 63 49 59 22 -1 30 2 28 10 -7 22 -72 22
-91 0z"/>
<path d="M1783 3292 c-21 -13 -33 -60 -23 -86 16 -43 84 -62 110 -31 14 16 10
18 -36 15 -17 -1 -36 6 -43 14 -12 14 -8 16 37 16 28 0 54 4 57 10 7 11 -12
51 -29 62 -14 10 -58 10 -73 0z m51 -18 c28 -11 17 -24 -20 -24 -31 0 -35 2
-24 15 14 17 21 18 44 9z"/>
<path d="M1921 3286 c-19 -23 -4 -56 30 -63 34 -7 46 -20 30 -36 -7 -7 -18 -7
-37 2 -31 14 -42 8 -24 -14 15 -18 61 -20 78 -3 25 25 14 56 -23 68 -49 16
-48 45 1 35 28 -5 35 -3 32 7 -7 19 -72 22 -87 4z"/>
<path d="M2051 3286 c-19 -23 -4 -56 30 -63 34 -7 46 -20 30 -36 -7 -7 -18 -7
-37 2 -31 14 -42 8 -24 -14 15 -18 61 -20 78 -3 25 25 14 56 -23 68 -49 16
-48 45 1 35 28 -5 35 -3 32 7 -7 19 -72 22 -87 4z"/>
<path d="M2186 3278 c-46 -65 14 -140 88 -112 32 12 17 31 -25 30 -25 -1 -44
4 -46 12 -3 8 10 12 46 12 42 0 51 3 51 18 0 34 -29 62 -65 62 -24 0 -39 -7
-49 -22z m74 -13 c11 -13 7 -15 -25 -15 -32 0 -36 2 -25 15 7 8 18 15 25 15 7
0 18 -7 25 -15z"/>
<path d="M7956 3285 c-9 -26 -7 -32 5 -12 6 10 9 21 6 23 -2 3 -7 -2 -11 -11z"/>
<path d="M7716 3278 c-9 -5 -23 -8 -29 -5 -9 3 -12 -5 -9 -28 3 -24 8 -32 18
-28 8 3 14 0 14 -6 0 -6 7 -8 17 -4 12 5 14 3 8 -7 -6 -9 -4 -11 4 -6 7 5 10
15 7 23 -3 8 -2 11 3 8 19 -11 22 16 4 39 -15 19 -23 22 -37 14z"/>
<path d="M6080 3238 c-12 -22 -12 -22 6 -6 10 10 15 20 12 24 -4 3 -12 -5 -18
-18z"/>
<path d="M5313 3233 c-4 -10 -11 -22 -17 -26 -8 -6 -7 -10 2 -14 7 -2 12 -22
12 -44 0 -21 5 -39 10 -39 6 0 10 16 10 36 0 23 6 42 18 50 16 13 16 13 0 14
-22 0 -24 20 -3 20 8 0 15 5 15 10 0 17 -40 11 -47 -7z"/>
<path d="M5490 3240 c0 -5 5 -10 10 -10 6 0 10 5 10 10 0 6 -4 10 -10 10 -5 0
-10 -4 -10 -10z"/>
<path d="M7525 3240 c-3 -5 -1 -10 4 -10 6 0 11 5 11 10 0 6 -2 10 -4 10 -3 0
-8 -4 -11 -10z"/>
<path d="M5538 3218 c-8 -22 4 -87 18 -99 7 -6 18 -7 25 -3 8 5 7 9 -5 16 -21
12 -22 58 -1 58 20 0 19 10 -2 26 -23 17 -30 17 -35 2z"/>
<path d="M5380 3189 c-25 -47 19 -95 67 -73 14 6 11 9 -15 13 -45 8 -45 25 1
29 41 4 42 5 27 33 -15 27 -66 26 -80 -2z m58 -7 c2 -7 -7 -12 -23 -12 -24 0
-26 2 -15 15 14 17 31 16 38 -3z"/>
<path d="M5490 3159 c0 -31 4 -48 10 -44 6 3 10 26 10 51 0 24 -4 44 -10 44
-5 0 -10 -23 -10 -51z"/>
<path d="M5622 3198 c-28 -28 -2 -88 38 -88 40 0 66 60 38 88 -7 7 -24 12 -38
12 -14 0 -31 -5 -38 -12z m58 -13 c19 -23 8 -50 -20 -50 -16 0 -26 6 -28 18
-4 18 14 47 28 47 4 0 13 -7 20 -15z"/>
<path d="M5790 3191 c-24 -45 1 -81 55 -79 35 1 35 2 35 48 l0 47 -40 1 c-30
1 -42 -3 -50 -17z m60 -6 c19 -23 8 -50 -20 -50 -16 0 -26 6 -28 18 -4 18 14
47 28 47 4 0 13 -7 20 -15z"/>
<path d="M5910 3138 c0 -44 4 -67 10 -63 6 3 10 14 10 24 0 14 6 17 24 14 35
-7 64 37 48 72 -10 21 -18 25 -52 23 l-40 -1 0 -69z m70 47 c18 -22 3 -57 -23
-53 -25 3 -34 32 -17 53 16 19 24 19 40 0z"/>
<path d="M6044 3203 c-39 -28 -13 -97 34 -91 36 4 57 44 38 73 -14 21 -53 31
-72 18z m61 -31 c9 -23 -21 -49 -42 -36 -24 15 -26 29 -8 47 18 18 40 13 50
-11z"/>
<path d="M6157 3203 c-16 -15 -6 -41 18 -47 38 -10 31 -30 -7 -22 -30 6 -32 5
-16 -10 11 -11 25 -15 42 -10 37 9 34 41 -5 55 -36 12 -29 34 8 25 18 -5 24
-3 19 5 -8 12 -48 15 -59 4z"/>
<path d="M7555 3160 c10 -11 20 -20 23 -20 3 0 -3 9 -13 20 -10 11 -20 20 -23
20 -3 0 3 -9 13 -20z"/>
<path d="M7888 3173 c7 -3 16 -2 19 1 4 3 -2 6 -13 5 -11 0 -14 -3 -6 -6z"/>
<path d="M7594 3104 c-4 -10 -9 -22 -11 -26 -2 -5 0 -8 5 -8 10 0 24 41 17 48
-3 3 -8 -4 -11 -14z"/>
<path d="M7793 3065 c0 -8 6 -16 14 -19 15 -6 15 -4 7 18 -8 20 -21 21 -21 1z"/>
<path d="M7555 3020 c-3 -5 -1 -10 4 -10 6 0 11 5 11 10 0 6 -2 10 -4 10 -3 0
-8 -4 -11 -10z"/>
<path d="M1580 2914 c0 -41 4 -63 10 -59 6 3 10 33 10 66 0 33 -4 59 -10 59
-6 0 -10 -29 -10 -66z"/>
<path d="M1943 2963 c-4 -10 -11 -21 -17 -25 -7 -5 -7 -8 2 -8 7 0 12 -15 12
-40 0 -22 5 -40 10 -40 6 0 10 18 10 40 0 25 5 40 13 40 8 0 7 4 -3 10 -13 9
-12 12 4 25 19 15 19 15 -2 15 -13 0 -26 -8 -29 -17z"/>
<path d="M5340 2970 c0 -5 5 -10 10 -10 6 0 10 5 10 10 0 6 -4 10 -10 10 -5 0
-10 -4 -10 -10z"/>
<path d="M5480 2970 c0 -5 5 -10 10 -10 6 0 10 5 10 10 0 6 -4 10 -10 10 -5 0
-10 -4 -10 -10z"/>
<path d="M5780 2970 c0 -5 5 -10 10 -10 6 0 10 5 10 10 0 6 -4 10 -10 10 -5 0
-10 -4 -10 -10z"/>
<path d="M5940 2970 c0 -5 5 -10 10 -10 6 0 10 5 10 10 0 6 -4 10 -10 10 -5 0
-10 -4 -10 -10z"/>
<path d="M6090 2970 c0 -5 5 -10 10 -10 6 0 10 5 10 10 0 6 -4 10 -10 10 -5 0
-10 -4 -10 -10z"/>
<path d="M6260 2909 c0 -44 4 -68 10 -64 6 3 10 35 10 71 0 36 -4 64 -10 64
-6 0 -10 -30 -10 -71z"/>
<path d="M1742 2950 c-7 -12 -8 -20 -2 -20 5 0 10 -15 10 -34 0 -38 15 -55 33
-37 8 8 8 11 -1 11 -14 0 -17 57 -3 62 4 2 1 11 -8 20 -16 16 -18 16 -29 -2z"/>
<path d="M7561 2936 c-1 -26 2 -37 9 -30 6 6 6 21 1 39 -9 30 -9 30 -10 -9z"/>
<path d="M7813 2956 c3 -8 2 -29 -3 -46 -5 -18 -5 -28 0 -25 5 3 12 21 16 40
7 37 23 38 25 2 1 -18 2 -18 6 -4 3 10 -1 24 -7 32 -16 19 -44 20 -37 1z"/>
<path d="M5528 2948 c-8 -22 4 -87 18 -99 7 -6 18 -7 25 -3 8 5 7 9 -5 16 -21
12 -22 58 -1 58 20 0 19 10 -2 26 -23 17 -30 17 -35 2z"/>
<path d="M1226 2938 c-19 -11 -21 -61 -3 -76 7 -6 27 -10 45 -10 31 1 32 2 32
47 0 44 -1 46 -29 47 -16 1 -36 -3 -45 -8z m49 -38 c0 -18 -6 -26 -22 -28 -18
-3 -23 1 -23 21 0 28 9 39 30 35 9 -2 15 -14 15 -28z"/>
<path d="M1330 2935 c-15 -18 -6 -33 28 -46 18 -7 22 -13 15 -20 -8 -8 -17 -7
-33 1 -18 10 -21 9 -18 -2 3 -7 18 -13 34 -13 39 0 45 30 10 46 -33 15 -34 33
-1 27 28 -6 34 6 9 16 -23 9 -30 8 -44 -9z"/>
<path d="M1483 2943 c-21 -4 -23 -10 -23 -64 0 -33 4 -59 10 -59 6 0 10 9 10
19 0 14 5 18 20 14 11 -3 27 0 35 7 22 18 19 67 -4 80 -11 5 -21 9 -23 9 -2
-1 -13 -4 -25 -6z m46 -27 c15 -18 3 -46 -19 -46 -24 0 -33 15 -25 40 7 23 28
26 44 6z"/>
<path d="M1634 2933 c-17 -17 -18 -37 -4 -64 8 -14 20 -18 45 -16 34 2 35 3
35 47 0 43 -1 45 -31 46 -17 1 -37 -5 -45 -13z m54 -36 c3 -22 -1 -27 -18 -27
-23 0 -35 22 -26 46 10 25 41 12 44 -19z"/>
<path d="M1826 2938 c-19 -11 -21 -61 -3 -76 7 -6 27 -10 45 -10 31 1 32 2 32
47 0 44 -1 46 -29 47 -16 1 -36 -3 -45 -8z m49 -38 c0 -18 -6 -26 -22 -28 -18
-3 -23 1 -23 21 0 28 9 39 30 35 9 -2 15 -14 15 -28z"/>
<path d="M2018 2939 c-22 -13 -24 -62 -2 -79 24 -21 68 -1 72 31 3 27 -20 59
-41 59 -7 0 -20 -5 -29 -11z m47 -39 c0 -18 -6 -26 -21 -28 -26 -4 -40 24 -23
45 18 21 44 11 44 -17z"/>
<path d="M2133 2943 c-19 -4 -23 -11 -23 -43 0 -21 5 -42 10 -45 6 -4 10 9 10
30 0 28 5 38 20 42 18 5 30 25 13 22 -5 -1 -18 -4 -30 -6z"/>
<path d="M2213 2943 c-20 -4 -23 -11 -23 -49 0 -53 18 -59 22 -7 2 27 8 39 21
41 14 3 17 -4 17 -37 0 -51 18 -54 22 -4 2 27 8 39 21 41 13 3 17 -4 17 -32 0
-19 5 -38 10 -41 6 -4 10 11 10 38 0 48 -20 68 -47 46 -10 -9 -17 -9 -25 -1
-7 7 -14 11 -17 11 -4 -1 -16 -4 -28 -6z"/>
<path d="M2364 2925 c-17 -25 -11 -64 9 -67 64 -8 67 -6 67 42 0 43 -1 45 -30
47 -22 2 -34 -4 -46 -22z m55 -9 c15 -18 3 -46 -20 -46 -22 0 -34 22 -25 45 7
19 30 19 45 1z"/>
<path d="M2483 2943 c-22 -8 -14 -39 13 -51 14 -7 22 -17 19 -22 -4 -7 -13 -6
-27 1 -16 9 -19 8 -16 -3 6 -18 36 -22 53 -8 21 18 18 29 -10 42 -30 13 -34
33 -5 25 24 -6 27 8 4 17 -9 3 -16 6 -17 5 -1 0 -8 -3 -14 -6z"/>
<path d="M7645 2910 c3 -25 10 -49 16 -54 11 -12 11 -12 -7 49 l-14 50 5 -45z"/>
<path d="M5236 2903 c9 -21 18 -44 21 -50 9 -23 20 -14 41 37 12 28 16 50 11
50 -6 0 -15 -13 -20 -30 -6 -16 -14 -30 -18 -30 -4 0 -12 14 -18 30 -6 17 -16
30 -22 30 -7 0 -6 -13 5 -37z"/>
<path d="M5340 2889 c0 -31 4 -48 10 -44 6 3 10 26 10 51 0 24 -4 44 -10 44
-5 0 -10 -23 -10 -51z"/>
<path d="M5383 2923 c-4 -10 0 -21 11 -27 10 -6 25 -17 34 -24 15 -12 13 -13
-16 -8 -24 4 -32 2 -29 -7 2 -6 17 -12 33 -12 40 0 48 40 10 55 -34 13 -35 34
-1 26 14 -4 25 -2 25 4 0 18 -60 12 -67 -7z"/>
<path d="M5480 2889 c0 -31 4 -48 10 -44 6 3 10 26 10 51 0 24 -4 44 -10 44
-5 0 -10 -23 -10 -51z"/>
<path d="M5612 2928 c-16 -16 -15 -63 2 -77 7 -6 28 -9 47 -7 33 3 34 5 37 50
l3 46 -38 0 c-22 0 -44 -5 -51 -12z m58 -13 c18 -22 3 -57 -23 -53 -25 3 -34
32 -17 53 16 19 24 19 40 0z"/>
<path d="M5780 2889 c0 -31 4 -48 10 -44 6 3 10 26 10 51 0 24 -4 44 -10 44
-5 0 -10 -23 -10 -51z"/>
<path d="M5830 2886 c0 -56 17 -53 22 4 2 23 8 35 18 35 10 0 16 -12 18 -35 6
-58 22 -60 22 -2 l0 52 -40 -2 -40 -1 0 -51z"/>
<path d="M5940 2890 c0 -27 5 -50 10 -50 6 0 10 23 10 50 0 28 -4 50 -10 50
-5 0 -10 -22 -10 -50z"/>
<path d="M5989 2914 c-7 -20 -6 -32 6 -50 16 -25 58 -33 70 -14 3 6 -4 10 -18
10 -30 0 -50 21 -41 44 6 17 16 20 48 16 11 -1 15 3 12 9 -4 6 -21 11 -37 11
-23 0 -32 -6 -40 -26z"/>
<path d="M6090 2889 c0 -31 4 -48 10 -44 6 3 10 26 10 51 0 24 -4 44 -10 44
-5 0 -10 -23 -10 -51z"/>
<path d="M6142 2928 c-16 -16 -15 -63 2 -77 7 -6 28 -9 47 -7 33 3 34 5 37 50
l3 46 -38 0 c-22 0 -44 -5 -51 -12z m58 -13 c18 -22 3 -57 -23 -53 -25 3 -34
32 -17 53 16 19 24 19 40 0z"/>
<path d="M7960 2920 c0 -6 7 -10 15 -10 8 0 15 2 15 4 0 2 -7 6 -15 10 -8 3
-15 1 -15 -4z"/>
<path d="M7834 2848 c-8 -27 4 -35 20 -13 7 10 18 15 24 11 7 -4 12 -3 12 2 0
5 -11 12 -25 14 -18 4 -26 0 -31 -14z"/>
<path d="M7640 2820 c-9 -6 -10 -10 -3 -10 6 0 15 5 18 10 8 12 4 12 -15 0z"/>
<path d="M1197 2723 c-4 -3 -7 -34 -6 -67 1 -54 2 -58 12 -34 7 18 19 28 36
30 20 2 27 9 29 30 3 22 -2 30 -23 38 -31 12 -39 12 -48 3z m48 -38 c0 -11 -8
-21 -17 -23 -14 -3 -18 3 -18 23 0 20 4 26 18 23 9 -2 17 -12 17 -23z"/>
<path d="M1750 2720 c0 -5 5 -10 10 -10 6 0 10 5 10 10 0 6 -4 10 -10 10 -5 0
-10 -4 -10 -10z"/>
<path d="M2242 2722 c-9 -6 -12 -27 -10 -63 3 -53 4 -54 35 -57 45 -4 77 29
69 71 -4 17 -10 34 -14 38 -13 12 -67 19 -80 11z m70 -38 c15 -33 1 -58 -36
-62 -25 -3 -26 -1 -26 42 0 42 2 46 25 46 18 0 29 -8 37 -26z"/>
<path d="M1541 2671 c-24 -57 -28 -86 -7 -58 7 9 23 17 36 17 13 0 29 -8 37
-17 13 -17 14 -16 9 8 -8 39 -35 99 -45 99 -5 0 -18 -22 -30 -49z m43 -6 c4
-10 -1 -15 -14 -15 -13 0 -18 5 -14 15 4 8 10 15 14 15 4 0 10 -7 14 -15z"/>
<path d="M1402 2695 c-7 -9 -8 -15 -2 -15 5 0 10 -16 10 -35 0 -35 22 -57 38
-40 4 4 1 10 -5 12 -16 6 -17 63 -2 63 6 0 4 7 -5 15 -18 18 -18 18 -34 0z"/>
<path d="M5410 2646 c0 -36 5 -68 10 -71 6 -4 10 20 10 64 0 41 -4 71 -10 71
-6 0 -10 -28 -10 -64z"/>
<path d="M5730 2700 c0 -5 5 -10 10 -10 6 0 10 5 10 10 0 6 -4 10 -10 10 -5 0
-10 -4 -10 -10z"/>
<path d="M6100 2690 c0 -15 -7 -20 -28 -20 -35 0 -52 -16 -52 -51 0 -35 20
-50 61 -45 l34 3 3 67 c2 41 -1 66 -8 66 -5 0 -10 -9 -10 -20z m-10 -45 c18
-22 3 -57 -23 -53 -25 3 -34 32 -17 53 16 19 24 19 40 0z"/>
<path d="M1305 2680 c-24 -27 -13 -68 21 -76 14 -4 30 -2 37 5 8 8 4 11 -15
11 -15 0 -30 5 -33 10 -4 6 8 10 29 10 40 0 47 17 18 43 -24 22 -35 21 -57 -3z
m50 -10 c4 -6 -5 -10 -20 -10 -15 0 -24 4 -20 10 3 6 12 10 20 10 8 0 17 -4
20 -10z"/>
<path d="M1663 2693 c-20 -4 -23 -11 -23 -49 0 -53 18 -59 22 -7 2 27 8 39 21
41 13 3 17 -4 17 -32 0 -19 5 -38 10 -41 6 -4 10 11 10 38 0 32 -5 47 -16 51
-9 3 -16 5 -17 5 -1 -1 -12 -4 -24 -6z"/>
<path d="M1810 2680 c-25 -25 -25 -32 -2 -60 25 -31 69 -21 78 17 5 20 2 31
-16 45 -28 23 -35 23 -60 -2z m55 -30 c0 -16 -6 -26 -19 -28 -25 -5 -39 12
-31 38 10 31 50 24 50 -10z"/>
<path d="M1978 2689 c-22 -13 -24 -62 -2 -79 24 -21 68 -1 72 31 3 27 -20 59
-41 59 -7 0 -20 -5 -29 -11z m47 -39 c0 -18 -6 -26 -21 -28 -26 -4 -40 24 -23
45 18 21 44 11 44 -17z"/>
<path d="M2378 2689 c-22 -13 -24 -62 -2 -79 24 -21 68 -1 72 31 3 27 -20 59
-41 59 -7 0 -20 -5 -29 -11z m47 -39 c0 -18 -6 -26 -21 -28 -26 -4 -40 24 -23
45 18 21 44 11 44 -17z"/>
<path d="M2487 2689 c-21 -12 -22 -62 -2 -79 8 -7 24 -10 36 -7 13 3 19 1 16
-6 -2 -7 -16 -11 -31 -10 -14 1 -26 -2 -26 -8 0 -14 56 -11 69 5 7 8 11 35 9
62 -3 42 -6 47 -28 50 -14 1 -33 -2 -43 -7z m48 -39 c0 -18 -6 -26 -21 -28
-26 -4 -40 24 -23 45 18 21 44 11 44 -17z"/>
<path d="M1748 2633 c-4 -65 -4 -68 11 -58 13 8 15 115 2 115 -5 0 -11 -26
-13 -57z"/>
<path d="M2070 2662 c0 -40 21 -65 51 -60 21 3 24 9 27 46 2 25 -1 42 -7 42
-6 0 -11 -16 -11 -36 0 -28 -3 -35 -17 -32 -12 2 -19 14 -21 36 -4 39 -22 43
-22 4z"/>
<path d="M5780 2673 c-10 -12 -11 -18 -2 -21 7 -2 12 -19 12 -38 0 -34 22 -56
38 -39 4 4 1 10 -5 12 -17 6 -17 60 -1 65 9 3 8 9 -4 21 -20 20 -19 20 -38 0z"/>
<path d="M4116 2673 c-3 -3 -6 -18 -6 -33 0 -24 -3 -26 -30 -22 -43 6 -70 -21
-70 -68 0 -51 23 -69 83 -67 l47 2 0 92 c0 84 -7 113 -24 96z m-11 -98 c19
-29 2 -65 -29 -65 -37 0 -52 34 -31 66 19 29 42 28 60 -1z"/>
<path d="M3412 2654 c-19 -36 -62 -147 -62 -161 0 -20 18 -15 25 7 5 16 15 20
50 20 35 0 45 -4 50 -20 6 -20 20 -26 29 -12 5 8 -58 160 -73 175 -5 5 -13 1
-19 -9z m33 -81 c5 -20 3 -23 -19 -23 -30 0 -29 0 -16 36 11 29 23 24 35 -13z"/>
<path d="M5180 2600 c0 -45 4 -69 10 -65 6 3 10 14 10 24 0 14 6 17 23 14 31
-6 49 18 45 59 -3 31 -5 33 -45 36 l-43 3 0 -71z m75 32 c7 -20 -19 -47 -39
-39 -19 7 -21 53 -3 60 18 6 35 -2 42 -21z"/>
<path d="M5299 2644 c-14 -38 12 -76 48 -72 35 4 40 24 7 23 -15 0 -29 6 -31
13 -3 8 7 12 31 12 39 0 41 2 26 31 -17 30 -68 26 -81 -7z m61 1 c11 -13 8
-15 -14 -15 -25 0 -33 10 -19 23 10 11 19 8 33 -8z"/>
<path d="M5472 2658 c-28 -28 -2 -88 38 -88 40 0 66 60 38 88 -7 7 -24 12 -38
12 -14 0 -31 -5 -38 -12z m58 -13 c19 -23 8 -50 -20 -50 -16 0 -26 6 -28 18
-4 18 14 47 28 47 4 0 13 -7 20 -15z"/>
<path d="M5637 2657 c-7 -19 4 -33 31 -41 34 -11 27 -30 -8 -22 -37 7 -40 -11
-4 -20 17 -4 31 -1 41 9 18 18 10 35 -24 48 -28 10 -21 33 8 24 11 -4 19 -2
19 4 0 16 -57 13 -63 -2z"/>
<path d="M5730 2620 c0 -27 5 -50 10 -50 6 0 10 23 10 50 0 28 -4 50 -10 50
-5 0 -10 -22 -10 -50z"/>
<path d="M5860 2649 c-25 -47 19 -95 67 -73 14 6 11 9 -15 13 -45 8 -45 25 1
29 41 4 42 5 27 33 -15 27 -66 26 -80 -2z m58 -7 c2 -7 -7 -12 -23 -12 -24 0
-26 2 -15 15 14 17 31 16 38 -3z"/>
<path d="M6150 2651 c-24 -45 1 -81 55 -79 35 1 35 2 35 48 l0 47 -40 1 c-30
1 -42 -3 -50 -17z m60 -6 c19 -23 8 -50 -20 -50 -16 0 -26 6 -28 18 -4 18 14
47 28 47 4 0 13 -7 20 -15z"/>
<path d="M6267 2657 c-7 -19 4 -33 31 -41 34 -11 27 -30 -8 -22 -37 7 -40 -11
-4 -20 17 -4 31 -1 41 9 18 18 10 35 -24 48 -28 10 -21 33 8 24 11 -4 19 -2
19 4 0 16 -57 13 -63 -2z"/>
<path d="M3536 2598 c-42 -59 18 -145 76 -109 14 9 18 8 18 -4 0 -21 -30 -34
-64 -28 -22 4 -27 2 -24 -8 7 -22 76 -24 99 -3 16 14 19 31 19 94 l0 77 -54 2
c-46 1 -57 -3 -70 -21z m83 -12 c7 -8 11 -27 9 -43 -2 -23 -9 -29 -32 -31 -31
-4 -46 10 -46 44 0 40 45 59 69 30z"/>
<path d="M3717 2608 c-9 -7 -19 -27 -23 -43 -11 -56 45 -100 100 -79 30 11 18
30 -17 26 -22 -2 -38 2 -46 12 -12 14 -8 16 38 16 47 0 51 2 51 23 0 47 -63
74 -103 45z m57 -14 c28 -11 17 -24 -20 -24 -31 0 -35 2 -24 15 14 17 21 18
44 9z"/>
<path d="M3853 2605 c-2 -7 -3 -36 -1 -65 4 -72 26 -78 30 -9 6 95 68 93 68
-2 0 -27 4 -49 10 -49 16 0 23 49 14 93 l-9 42 -54 1 c-33 0 -55 -4 -58 -11z"/>
<path d="M4203 2612 c-21 -13 -33 -60 -23 -86 16 -43 84 -62 110 -31 14 16 10
18 -36 15 -17 -1 -36 6 -43 14 -12 14 -8 16 37 16 28 0 54 4 57 10 7 11 -12
51 -29 62 -14 10 -58 10 -73 0z m51 -18 c28 -11 17 -24 -20 -24 -31 0 -35 2
-24 15 14 17 21 18 44 9z"/>
<path d="M7138 2604 c-57 -30 -65 -98 -18 -145 24 -25 37 -30 67 -27 52 4 56
28 4 28 -30 0 -44 6 -55 22 -37 53 -1 115 60 103 26 -4 34 -2 34 8 0 8 -10 17
-22 21 -32 8 -39 7 -70 -10z"/>
<path d="M7742 2608 c6 -18 28 -21 28 -4 0 9 -7 16 -16 16 -9 0 -14 -5 -12
-12z"/>
<path d="M7450 2585 c0 -8 -7 -15 -15 -15 -8 0 -15 -7 -15 -15 0 -8 7 -15 14
-15 11 0 16 -15 18 -52 2 -42 7 -54 22 -56 10 -2 23 1 29 7 9 9 6 13 -11 17
-18 5 -22 13 -22 44 0 30 4 39 21 43 23 6 17 27 -7 27 -8 0 -14 7 -14 15 0 8
-4 15 -10 15 -5 0 -10 -7 -10 -15z"/>
<path d="M7820 2589 c0 -7 -8 -18 -17 -25 -17 -12 -17 -13 0 -19 12 -5 17 -18
17 -50 0 -45 19 -71 45 -61 19 7 20 26 0 26 -11 0 -15 11 -15 40 0 29 4 40 15
40 8 0 15 7 15 15 0 8 -7 15 -15 15 -8 0 -15 7 -15 15 0 8 -7 15 -15 15 -8 0
-15 -5 -15 -11z"/>
<path d="M7930 2589 c0 -7 -8 -18 -17 -25 -17 -12 -17 -13 0 -19 12 -5 17 -18
17 -50 0 -45 19 -71 45 -61 19 7 20 26 0 26 -11 0 -15 11 -15 40 0 29 4 40 15
40 8 0 15 7 15 15 0 8 -7 15 -15 15 -8 0 -15 7 -15 15 0 8 -7 15 -15 15 -8 0
-15 -5 -15 -11z"/>
<path d="M7276 2552 c-21 -25 -21 -85 2 -105 11 -10 33 -15 65 -14 l47 2 0 65
0 66 -49 2 c-36 1 -52 -3 -65 -16z m79 -27 c19 -29 2 -65 -29 -65 -37 0 -52
34 -31 66 19 29 42 28 60 -1z"/>
<path d="M7621 2556 c-19 -23 -4 -56 30 -63 34 -7 46 -20 30 -36 -7 -7 -18 -7
-37 2 -31 14 -42 8 -24 -14 15 -18 61 -20 78 -3 25 25 14 56 -23 68 -49 16
-48 45 1 35 28 -5 35 -3 32 7 -7 19 -72 22 -87 4z"/>
<path d="M7742 2503 c2 -42 8 -68 16 -71 9 -3 12 15 12 67 0 57 -3 71 -15 71
-13 0 -15 -12 -13 -67z"/>
<path d="M8036 2548 c-46 -65 14 -140 88 -112 32 12 17 31 -25 30 -25 -1 -44
4 -46 12 -3 8 10 12 46 12 42 0 51 3 51 18 0 34 -29 62 -65 62 -24 0 -39 -7
-49 -22z m74 -13 c11 -13 7 -15 -25 -15 -32 0 -36 2 -25 15 7 8 18 15 25 15 7
0 18 -7 25 -15z"/>
<path d="M8182 2501 c3 -75 21 -89 26 -21 4 50 16 70 43 70 11 0 19 4 19 10 0
5 -20 9 -45 8 l-46 -1 3 -66z"/>
<path d="M1682 2410 c0 -44 2 -55 7 -35 5 25 11 30 36 30 25 0 31 -5 36 -30 5
-20 7 -9 7 35 0 41 -3 56 -7 40 -5 -19 -13 -25 -36 -25 -23 0 -31 6 -36 25 -4
16 -7 1 -7 -40z"/>
<path d="M1816 2434 c-19 -18 -21 -55 -4 -72 15 -15 54 -16 63 -2 3 6 -5 10
-19 10 -14 0 -28 5 -31 10 -4 6 6 10 24 10 39 0 47 14 21 40 -24 24 -34 25
-54 4z m49 -14 c4 -6 -5 -10 -20 -10 -15 0 -24 4 -20 10 3 6 12 10 20 10 8 0
17 -4 20 -10z"/>
<path d="M1933 2442 c-20 -3 -23 -9 -23 -48 0 -28 4 -43 10 -39 6 3 10 21 10
40 0 27 4 34 23 37 12 2 18 5 12 9 -5 3 -20 3 -32 1z"/>
<path d="M2000 2430 c-25 -25 -25 -32 -2 -60 14 -18 25 -21 45 -16 38 9 48 53
17 78 -28 23 -35 23 -60 -2z m55 -30 c0 -16 -6 -26 -19 -28 -25 -5 -39 12 -31
38 10 31 50 24 50 -10z"/>
<path d="M5300 2376 c0 -36 5 -68 10 -71 6 -4 10 20 10 64 0 41 -4 71 -10 71
-6 0 -10 -28 -10 -64z"/>
<path d="M5700 2431 c0 -5 -8 -17 -17 -27 -13 -13 -14 -19 -5 -22 7 -2 12 -21
12 -43 0 -21 5 -39 10 -39 6 0 10 18 10 40 0 29 4 40 15 40 8 0 15 5 15 10 0
6 -7 10 -15 10 -8 0 -15 5 -15 10 0 6 7 10 15 10 8 0 15 5 15 10 0 6 -9 10
-20 10 -11 0 -20 -4 -20 -9z"/>
<path d="M5480 2403 c-10 -12 -11 -18 -2 -21 7 -2 12 -19 12 -38 0 -34 22 -56
38 -39 4 4 1 10 -5 12 -17 6 -17 60 -1 65 9 3 8 9 -4 21 -20 20 -19 20 -38 0z"/>
<path d="M5180 2334 c0 -35 5 -66 10 -69 6 -4 10 5 10 20 0 22 3 25 24 19 28
-7 56 18 56 50 0 32 -20 46 -63 44 l-37 -1 0 -63z m73 34 c14 -21 2 -48 -22
-48 -24 0 -37 36 -20 56 14 17 28 14 42 -8z"/>
<path d="M5362 2388 c-16 -16 -15 -63 2 -77 7 -6 28 -9 47 -7 33 3 34 5 37 50
l3 46 -38 0 c-22 0 -44 -5 -51 -12z m58 -13 c18 -22 3 -57 -23 -53 -25 3 -34
32 -17 53 16 19 24 19 40 0z"/>
<path d="M5560 2381 c-24 -45 1 -81 55 -79 35 1 35 2 35 48 l0 47 -40 1 c-30
1 -42 -3 -50 -17z m60 -6 c19 -23 8 -50 -20 -50 -16 0 -26 6 -28 18 -4 18 14
47 28 47 4 0 13 -7 20 -15z"/>
<path d="M5774 2393 c-39 -28 -13 -97 34 -91 36 4 57 44 38 73 -14 21 -53 31
-72 18z m61 -31 c9 -23 -21 -49 -42 -36 -24 15 -26 29 -8 47 18 18 40 13 50
-11z"/>
<path d="M5880 2349 c0 -31 4 -48 10 -44 6 3 10 22 10 41 0 27 5 37 23 44 20
8 19 9 -10 9 -33 1 -33 1 -33 -50z"/>
<path d="M5960 2354 c0 -23 5 -46 10 -49 6 -4 10 8 10 28 0 40 20 63 38 45 7
-7 12 -28 12 -47 0 -44 17 -29 22 19 2 23 8 35 18 35 10 0 16 -12 18 -35 6
-58 24 -62 20 -5 l-3 50 -72 1 -73 2 0 -44z"/>
<path d="M6152 2388 c-16 -16 -15 -63 1 -77 7 -6 28 -9 45 -8 31 2 32 3 32 50
0 47 0 47 -33 47 -18 0 -38 -5 -45 -12z m62 -23 c7 -20 -18 -49 -38 -42 -19 7
-22 53 -3 60 17 6 34 -2 41 -18z"/>
<path d="M6267 2393 c-14 -14 -6 -34 18 -45 33 -15 32 -32 0 -25 -16 3 -24 0
-22 -7 2 -6 17 -11 33 -11 40 0 46 36 9 53 -33 15 -33 36 1 28 17 -5 23 -3 19
4 -7 11 -48 14 -58 3z"/>
<path d="M4103 2225 c0 -33 2 -45 4 -27 2 18 2 45 0 60 -2 15 -4 0 -4 -33z"/>
<path d="M3522 2258 c-15 -15 7 -88 26 -88 12 0 13 3 4 12 -14 14 -16 55 -3
60 5 2 3 8 -4 15 -8 8 -16 8 -23 1z"/>
<path d="M3147 2243 c-12 -11 -8 -50 6 -61 7 -6 23 -10 35 -9 19 1 22 7 22 39
0 35 -2 38 -28 38 -16 0 -32 -3 -35 -7z m49 -18 c4 -8 0 -22 -7 -31 -11 -13
-14 -13 -27 0 -17 17 -9 46 13 46 9 0 18 -7 21 -15z"/>
<path d="M3280 2240 c0 -6 7 -25 16 -42 l17 -32 19 38 c11 21 17 40 15 43 -3
3 -12 -8 -20 -24 l-15 -28 -11 28 c-11 27 -21 36 -21 17z"/>
<path d="M3373 2210 c0 -25 2 -35 4 -22 2 12 2 32 0 45 -2 12 -4 2 -4 -23z"/>
<path d="M3407 2243 c-13 -12 -7 -23 18 -35 29 -13 23 -32 -8 -22 -17 5 -19 3
-11 -6 7 -6 20 -10 30 -8 27 5 30 35 5 43 -12 3 -21 11 -21 16 0 6 9 7 21 4
15 -5 19 -4 15 4 -8 12 -39 15 -49 4z"/>
<path d="M3483 2210 c0 -25 2 -35 4 -22 2 12 2 32 0 45 -2 12 -4 2 -4 -23z"/>
<path d="M3584 2236 c-3 -8 -4 -25 -2 -38 2 -18 9 -23 36 -24 31 -1 32 1 32
38 0 36 -2 38 -30 38 -17 0 -33 -6 -36 -14z m46 -11 c10 -12 10 -18 0 -29 -14
-18 -40 -10 -40 13 0 32 20 40 40 16z"/>
<path d="M3723 2210 c0 -25 2 -35 4 -22 2 12 2 32 0 45 -2 12 -4 2 -4 -23z"/>
<path d="M3761 2205 l2 -40 6 35 c4 22 12 35 21 35 10 0 17 -13 20 -35 3 -23
8 -31 13 -22 5 7 6 26 2 42 -6 26 -11 30 -36 28 -27 -2 -29 -5 -28 -43z"/>
<path d="M3853 2210 c0 -25 2 -35 4 -22 2 12 2 32 0 45 -2 12 -4 2 -4 -23z"/>
<path d="M3892 2238 c-25 -25 -6 -68 29 -68 10 0 21 4 24 10 4 6 -4 9 -17 7
-19 -2 -23 3 -23 23 0 18 5 25 18 24 9 -1 17 2 17 7 0 13 -34 11 -48 -3z"/>
<path d="M3960 2216 c0 -19 5 -38 10 -41 6 -4 10 10 10 34 0 23 -4 41 -10 41
-5 0 -10 -15 -10 -34z"/>
<path d="M4004 2236 c-3 -8 -4 -25 -2 -38 2 -18 9 -23 36 -24 31 -1 32 1 32
38 0 36 -2 38 -30 38 -17 0 -33 -6 -36 -14z m46 -11 c10 -12 10 -18 0 -29 -14
-18 -40 -10 -40 13 0 32 20 40 40 16z"/>
<path d="M4180 2196 c0 -31 5 -56 10 -56 6 0 10 8 10 18 0 13 7 18 21 18 12
-1 26 7 33 17 16 25 -4 51 -43 55 l-31 3 0 -55z m55 14 c0 -27 -22 -39 -31
-16 -8 22 3 49 19 43 6 -2 12 -14 12 -27z"/>
<path d="M4280 2235 c-22 -27 2 -65 40 -62 28 2 30 5 30 40 0 34 -2 37 -29 37
-16 0 -34 -7 -41 -15z m45 -25 c0 -13 -6 -25 -12 -27 -16 -6 -27 21 -19 43 9
23 31 11 31 -16z"/>
<path d="M4375 2241 c-9 -9 -5 -60 5 -66 6 -4 10 6 10 24 0 18 7 34 18 40 15
9 14 10 -6 8 -13 -1 -25 -3 -27 -6z"/>
<path d="M4447 2243 c-12 -11 -8 -50 6 -61 7 -6 23 -10 35 -9 19 1 22 7 22 39
0 35 -2 38 -28 38 -16 0 -32 -3 -35 -7z m49 -18 c4 -8 0 -22 -7 -31 -11 -13
-14 -13 -27 0 -17 17 -9 46 13 46 9 0 18 -7 21 -15z"/>
<path d="M7192 2208 l-19 -43 -18 38 c-10 20 -22 37 -26 37 -9 0 27 -89 40
-103 5 -5 18 17 31 48 27 66 20 86 -8 23z"/>
<path d="M7937 2230 c-3 -13 -10 -18 -21 -14 -22 8 -46 -13 -46 -41 0 -29 18
-44 52 -42 27 2 28 4 28 60 0 59 -4 71 -13 37z m-4 -42 c7 -21 -4 -38 -23 -38
-10 0 -20 6 -23 13 -7 20 4 37 23 37 10 0 20 -6 23 -12z"/>
<path d="M7402 2220 c-7 -11 -8 -20 -3 -20 5 0 11 -14 13 -32 5 -50 24 -44 23
7 -1 54 -15 73 -33 45z"/>
<path d="M8087 2228 c-6 -18 4 -81 14 -92 6 -6 13 -6 21 2 9 9 9 12 0 12 -15
0 -16 47 -1 52 6 2 2 11 -9 21 -15 14 -21 15 -25 5z"/>
<path d="M7240 2175 c0 -28 4 -44 10 -40 6 3 10 21 10 40 0 19 -4 37 -10 40
-6 4 -10 -12 -10 -40z"/>
<path d="M7287 2213 c-15 -14 -6 -34 19 -43 30 -12 22 -34 -9 -24 -17 5 -19 3
-11 -6 16 -16 48 -9 52 13 2 11 -6 20 -23 27 -30 11 -24 34 7 24 14 -4 18 -2
14 5 -8 12 -39 15 -49 4z"/>
<path d="M7360 2175 c0 -28 4 -44 10 -40 6 3 10 21 10 40 0 19 -4 37 -10 40
-6 4 -10 -12 -10 -40z"/>
<path d="M7483 2213 c-7 -3 -13 -20 -13 -39 0 -35 2 -36 53 -38 25 -2 27 1 27
40 0 38 -2 41 -27 41 -16 0 -34 -1 -40 -4z m47 -38 c0 -18 -5 -25 -19 -25 -11
0 -23 5 -26 10 -11 18 3 40 25 40 15 0 20 -7 20 -25z"/>
<path d="M7620 2172 c0 -26 4 -41 10 -37 6 3 10 19 10 36 0 22 5 29 19 29 15
0 21 -9 24 -37 4 -33 4 -32 3 7 -1 44 -2 45 -33 45 -32 1 -33 0 -33 -43z"/>
<path d="M7733 2213 c-7 -3 -13 -20 -13 -39 0 -35 2 -36 53 -38 25 -2 27 1 27
40 0 38 -2 41 -27 41 -16 0 -34 -1 -40 -4z m47 -38 c0 -18 -5 -25 -19 -25 -11
0 -23 5 -26 10 -11 18 3 40 25 40 15 0 20 -7 20 -25z"/>
<path d="M7979 2198 c-8 -15 -8 -27 0 -45 9 -20 17 -23 44 -20 30 3 32 6 35
43 3 40 3 41 -32 42 -27 1 -38 -4 -47 -20z m59 -21 c4 -20 -25 -34 -40 -19
-15 15 -1 44 19 40 10 -2 19 -11 21 -21z"/>
<path d="M8163 2213 c-7 -3 -13 -20 -13 -39 0 -35 2 -36 53 -38 25 -2 27 1 27
40 0 38 -2 41 -27 41 -16 0 -34 -1 -40 -4z m47 -38 c0 -18 -5 -25 -19 -25 -11
0 -23 5 -26 10 -11 18 3 40 25 40 15 0 20 -7 20 -25z"/>
<path d="M3651 2020 c-1 -55 -1 -56 29 -58 20 -2 32 4 40 18 15 28 -4 60 -35
60 -14 0 -25 7 -28 18 -3 9 -5 -8 -6 -38z m57 -17 c4 -25 -22 -37 -38 -17 -10
11 -10 17 0 29 17 20 34 14 38 -12z"/>
<path d="M3337 2033 c-11 -11 -8 -48 5 -61 14 -14 48 -16 48 -2 0 5 -6 7 -13
4 -8 -3 -20 2 -27 11 -10 12 -10 18 0 30 7 9 19 14 27 11 7 -3 13 -1 13 4 0
11 -43 14 -53 3z"/>
<path d="M3417 2033 c-11 -11 -8 -48 5 -61 32 -32 87 18 58 53 -13 15 -51 20
-63 8z m51 -30 c4 -25 -22 -37 -38 -17 -10 11 -10 17 0 29 17 20 34 14 38 -12z"/>
<path d="M3511 1996 l2 -41 6 35 c4 22 12 35 21 35 9 0 17 -13 21 -35 l6 -35
4 35 c2 23 9 35 19 35 9 0 17 -13 21 -35 4 -27 7 -31 13 -17 5 9 5 28 2 42 -6
22 -11 24 -61 23 l-55 -2 1 -40z"/>
<path d="M3740 2006 c0 -19 5 -38 10 -41 6 -4 10 10 10 34 0 23 -4 41 -10 41
-5 0 -10 -15 -10 -34z"/>
<path d="M3780 1999 c0 -24 4 -38 10 -34 6 3 10 17 10 30 0 23 16 42 27 32 3
-4 9 -21 14 -39 8 -33 8 -33 6 7 -2 38 -4 40 -34 42 -32 1 -33 0 -33 -38z"/>
<path d="M3874 2015 c-8 -33 12 -56 45 -52 22 3 26 9 29 40 3 36 2 37 -32 37
-30 0 -37 -4 -42 -25z m54 -12 c4 -25 -22 -37 -38 -17 -10 11 -10 17 0 29 17
20 34 14 38 -12z"/>
<path d="M3971 1998 c1 -44 3 -43 13 4 3 14 14 29 24 31 10 3 6 5 -10 6 -26 1
-28 -1 -27 -41z"/>
<path d="M4041 1996 l2 -41 6 35 c4 22 12 35 21 35 9 0 17 -13 21 -35 l6 -35
4 35 c2 23 9 35 19 35 9 0 17 -13 21 -35 4 -27 7 -31 13 -17 5 9 5 28 2 42 -6
22 -11 24 -61 23 l-55 -2 1 -40z"/>
<path d="M4187 2034 c-15 -15 -7 -63 12 -69 33 -10 52 5 49 39 -2 25 -8 32
-28 34 -14 2 -29 0 -33 -4z m49 -19 c8 -20 -13 -45 -32 -38 -14 5 -19 34 -7
46 11 12 33 7 39 -8z"/>
<path d="M4277 2033 c-13 -12 -7 -23 18 -35 29 -13 23 -32 -8 -22 -17 5 -19 3
-11 -6 7 -6 20 -10 30 -8 27 5 30 35 5 43 -12 3 -21 11 -21 16 0 6 9 7 21 4
15 -5 19 -4 15 4 -8 12 -39 15 -49 4z"/>
<path d="M7391 1965 c-1 -59 0 -60 27 -62 34 -2 52 13 52 42 0 29 -24 48 -49
40 -15 -4 -21 -1 -24 17 -2 13 -5 -4 -6 -37z m62 -7 c7 -21 -4 -38 -23 -38
-10 0 -20 6 -23 13 -7 20 4 37 23 37 10 0 20 -6 23 -12z"/>
<path d="M7490 2010 c0 -5 5 -10 10 -10 6 0 10 5 10 10 0 6 -4 10 -10 10 -5 0
-10 -4 -10 -10z"/>
<path d="M7800 2001 c0 -14 -6 -17 -24 -14 -33 7 -53 -29 -37 -64 9 -20 17
-23 44 -20 32 3 32 4 35 60 2 35 -1 57 -8 57 -5 0 -10 -8 -10 -19z m-2 -54 c4
-20 -25 -34 -40 -19 -15 15 -1 44 19 40 10 -2 19 -11 21 -21z"/>
<path d="M7052 1978 c-29 -29 -7 -78 35 -78 13 0 23 5 23 10 0 6 -11 10 -25
10 -20 0 -25 5 -25 25 0 20 5 25 26 25 14 0 23 4 19 10 -8 14 -38 13 -53 -2z"/>
<path d="M7140 1976 c-28 -35 11 -93 48 -70 35 22 22 84 -18 84 -10 0 -23 -7
-30 -14z m53 -18 c7 -21 -4 -38 -23 -38 -23 0 -34 16 -26 35 7 18 43 20 49 3z"/>
<path d="M7235 1982 c-9 -10 -5 -71 5 -77 6 -4 10 8 10 29 0 29 4 36 20 36 16
0 20 -7 20 -36 0 -21 4 -33 10 -29 6 3 10 20 10 36 0 44 33 35 42 -11 6 -32 6
-31 5 10 l-2 45 -58 1 c-31 0 -60 -2 -62 -4z"/>
<path d="M7490 1945 c0 -25 5 -45 10 -45 6 0 10 20 10 45 0 25 -4 45 -10 45
-5 0 -10 -20 -10 -45z"/>
<path d="M7534 1981 c-8 -9 -4 -70 6 -76 6 -4 10 8 10 29 0 29 4 36 20 36 16
0 20 -7 20 -36 0 -21 4 -33 10 -29 12 7 13 55 2 73 -8 11 -57 14 -68 3z"/>
<path d="M7641 1977 c-15 -15 -14 -52 2 -65 6 -6 24 -10 39 -9 26 2 28 5 28
42 0 37 -2 40 -29 42 -15 1 -33 -3 -40 -10z m52 -19 c7 -21 -4 -38 -23 -38
-10 0 -20 6 -23 13 -7 20 4 37 23 37 10 0 20 -6 23 -12z"/>
<path d="M7851 1977 c-15 -15 -14 -52 2 -65 6 -6 24 -10 39 -9 26 2 28 5 28
42 0 37 -2 40 -29 42 -15 1 -33 -3 -40 -10z m52 -19 c7 -21 -4 -38 -23 -38
-10 0 -20 6 -23 13 -7 20 4 37 23 37 10 0 20 -6 23 -12z"/>
<path d="M8000 1976 c-27 -34 8 -88 46 -71 17 8 17 9 -6 13 -46 8 -49 52 -3
52 13 0 21 4 18 10 -9 15 -41 12 -55 -4z"/>
<path d="M8090 1976 c-28 -35 11 -93 48 -70 35 22 22 84 -18 84 -10 0 -23 -7
-30 -14z m53 -18 c7 -21 -4 -38 -23 -38 -23 0 -34 16 -26 35 7 18 43 20 49 3z"/>
<path d="M8185 1982 c-9 -10 -5 -71 5 -77 6 -4 10 8 10 29 0 29 4 36 20 36 16
0 20 -7 20 -36 0 -21 4 -33 10 -29 6 3 10 20 10 36 0 44 33 35 42 -11 6 -32 6
-31 5 10 l-2 45 -58 1 c-31 0 -60 -2 -62 -4z"/>
<path d="M5730 1900 c0 -93 89 -261 194 -366 148 -148 304 -209 590 -230 l89
-6 -49 -27 c-27 -14 -49 -33 -49 -41 0 -24 62 -13 135 24 60 31 65 37 68 69 3
34 1 37 -50 62 -29 14 -77 49 -105 78 -29 28 -55 48 -59 44 -14 -13 7 -56 51
-102 25 -27 45 -51 45 -53 0 -10 -217 9 -279 24 -77 19 -215 81 -264 118 -19
14 -38 26 -43 26 -14 0 -107 99 -141 150 -45 67 -68 118 -88 193 -19 71 -45
92 -45 37z"/>
<path d="M3990 1852 c0 -5 9 -8 20 -7 29 2 33 10 5 13 -14 1 -25 -2 -25 -6z"/>
<path d="M1732 1831 c-17 -11 -8 -64 26 -151 86 -222 284 -389 529 -446 37 -9
124 -19 193 -23 l125 -6 -52 -28 c-60 -31 -70 -57 -23 -57 36 0 168 64 177 85
12 33 -6 61 -56 84 -28 12 -75 47 -105 77 -55 54 -56 54 -56 26 0 -20 15 -45
51 -85 l51 -57 -34 0 c-170 2 -335 42 -457 112 -40 24 -82 48 -93 54 -38 22
-119 109 -159 171 -41 63 -89 186 -89 229 0 25 -7 29 -28 15z"/>
<path d="M3302 1818 c-25 -25 -6 -68 29 -68 10 0 21 4 24 10 4 6 -4 9 -17 7
-19 -2 -23 3 -23 23 0 18 5 25 18 24 9 -1 17 2 17 7 0 13 -34 11 -48 -3z"/>
<path d="M3380 1815 c-26 -32 13 -81 48 -59 34 22 22 74 -18 74 -10 0 -23 -7
-30 -15z m48 -19 c2 -10 -1 -23 -8 -30 -17 -17 -44 22 -28 41 14 17 32 12 36
-11z"/>
<path d="M3471 1786 l1 -41 8 33 c4 18 10 35 13 39 12 11 27 -10 27 -38 0 -18
4 -28 10 -24 6 3 10 19 10 36 0 19 5 29 15 29 10 0 15 -10 15 -29 0 -17 5 -33
11 -36 7 -5 9 6 7 31 l-3 39 -57 1 -58 1 1 -41z"/>
<path d="M3617 1823 c-11 -11 -8 -48 5 -61 32 -32 87 18 58 53 -13 15 -51 20
-63 8z m51 -30 c4 -25 -22 -37 -38 -17 -10 11 -10 17 0 29 17 20 34 14 38 -12z"/>
<path d="M3750 1811 c0 -10 9 -21 20 -24 32 -8 25 -30 -7 -23 -23 5 -25 4 -10
-5 10 -6 25 -8 33 -5 21 8 17 37 -6 43 -11 3 -20 10 -20 15 0 6 9 8 20 5 11
-3 20 -1 20 4 0 5 -11 9 -25 9 -18 0 -25 -5 -25 -19z"/>
<path d="M3832 1818 c-15 -15 -15 -41 0 -56 15 -15 45 -16 53 -2 4 6 -3 9 -16
7 -12 -1 -24 4 -26 11 -3 7 5 12 22 12 20 0 26 4 23 18 -4 21 -39 27 -56 10z
m43 -8 c3 -5 -3 -10 -14 -10 -12 0 -21 5 -21 10 0 6 6 10 14 10 8 0 18 -4 21
-10z"/>
<path d="M3915 1821 c-9 -9 -5 -60 5 -66 6 -4 10 6 10 24 0 18 7 34 18 40 15
9 14 10 -6 8 -13 -1 -25 -3 -27 -6z"/>
<path d="M3984 1816 c-3 -8 -4 -25 -2 -38 2 -18 9 -23 36 -24 31 -1 32 1 32
38 0 36 -2 38 -30 38 -17 0 -33 -6 -36 -14z m46 -11 c10 -12 10 -18 0 -29 -14
-18 -40 -10 -40 13 0 32 20 40 40 16z"/>
<path d="M4080 1815 c-10 -12 -10 -21 -2 -40 21 -45 77 -23 70 27 -4 28 -48
37 -68 13z m50 -10 c10 -12 10 -18 0 -29 -14 -18 -40 -10 -40 13 0 32 20 40
40 16z"/>
<path d="M4214 1805 c-8 -33 12 -56 45 -52 22 3 26 9 29 40 3 36 2 37 -32 37
-30 0 -37 -4 -42 -25z m54 -12 c4 -25 -22 -37 -38 -17 -10 11 -10 17 0 29 17
20 34 14 38 -12z"/>
<path d="M4314 1818 c-4 -7 2 -18 14 -26 28 -19 28 -35 1 -27 -15 5 -19 4 -15
-4 9 -14 43 -14 52 1 4 6 -2 19 -14 29 -25 20 -29 34 -7 25 8 -3 15 -1 15 4 0
14 -37 12 -46 -2z"/>
<path d="M7120 1771 c0 -14 -5 -18 -20 -14 -26 7 -50 -13 -50 -42 0 -29 20
-46 54 -43 25 2 26 5 26 60 0 32 -2 58 -5 58 -3 0 -5 -9 -5 -19z m-5 -56 c0
-13 -8 -21 -22 -23 -19 -3 -23 1 -23 23 0 22 4 26 23 23 14 -2 22 -10 22 -23z"/>
<path d="M8030 1780 c0 -5 5 -10 10 -10 6 0 10 5 10 10 0 6 -4 10 -10 10 -5 0
-10 -4 -10 -10z"/>
<path d="M7412 1760 c-7 -11 -8 -20 -3 -20 5 0 11 -14 13 -32 5 -50 24 -44 23
7 -1 54 -15 73 -33 45z"/>
<path d="M8077 1768 c-6 -18 4 -81 14 -92 6 -6 13 -6 21 2 9 9 9 12 0 12 -15
0 -16 47 -1 52 6 2 2 11 -9 21 -15 14 -21 15 -25 5z"/>
<path d="M7160 1715 c0 -28 4 -44 10 -40 6 3 10 21 10 40 0 19 -4 37 -10 40
-6 4 -10 -12 -10 -40z"/>
<path d="M7200 1711 c0 -50 16 -46 22 4 2 17 8 29 16 28 6 -2 12 1 12 6 0 5
-11 8 -25 7 -23 -1 -25 -5 -25 -45z"/>
<path d="M7280 1746 c-27 -34 8 -88 46 -71 17 8 16 9 -8 13 -38 5 -36 22 2 22
31 0 39 17 18 38 -16 16 -43 15 -58 -2z m50 -16 c0 -5 -9 -10 -20 -10 -11 0
-20 5 -20 10 0 6 9 10 20 10 11 0 20 -4 20 -10z"/>
<path d="M7370 1715 c0 -28 4 -44 10 -40 6 3 10 21 10 40 0 19 -4 37 -10 40
-6 4 -10 -12 -10 -40z"/>
<path d="M7486 1744 c-9 -8 -16 -22 -16 -29 0 -7 7 -21 16 -29 30 -30 74 -13
74 29 0 42 -44 59 -74 29z m54 -29 c0 -18 -5 -25 -19 -25 -11 0 -23 5 -26 10
-11 18 3 40 25 40 15 0 20 -7 20 -25z"/>
<path d="M7629 1738 c-8 -15 -8 -27 0 -45 9 -20 17 -23 44 -20 30 3 32 6 35
43 3 40 3 41 -32 42 -27 1 -38 -4 -47 -20z m59 -21 c4 -20 -25 -34 -40 -19
-15 15 -1 44 19 40 10 -2 19 -11 21 -21z"/>
<path d="M7780 1712 c0 -26 4 -41 10 -37 6 3 10 20 10 36 0 45 33 35 41 -11
l6 -35 4 35 c5 47 39 56 39 11 0 -16 5 -33 11 -36 7 -5 9 8 7 37 l-3 43 -62 0
-63 0 0 -43z"/>
<path d="M7942 1722 c-2 -46 16 -64 47 -45 18 11 28 83 12 83 -6 0 -11 -16
-11 -35 0 -28 -4 -35 -19 -35 -15 0 -21 8 -24 38 l-4 37 -1 -43z"/>
<path d="M8030 1715 c0 -25 5 -45 10 -45 6 0 10 20 10 45 0 25 -4 45 -10 45
-5 0 -10 -20 -10 -45z"/>
<path d="M8153 1753 c-7 -3 -13 -20 -13 -39 0 -35 2 -36 53 -38 25 -2 27 1 27
40 0 38 -2 41 -27 41 -16 0 -34 -1 -40 -4z m47 -38 c0 -18 -5 -25 -19 -25 -11
0 -23 5 -26 10 -11 18 3 40 25 40 15 0 20 -7 20 -25z"/>
<path d="M8247 1753 c-15 -14 -6 -34 20 -44 19 -7 23 -13 15 -21 -8 -8 -16 -7
-28 3 -15 12 -17 12 -12 -1 6 -20 42 -24 57 -6 10 12 8 18 -13 31 -31 21 -34
39 -5 30 15 -5 19 -4 15 4 -8 12 -39 15 -49 4z"/>
<path d="M3850 1635 c0 -8 -8 -15 -19 -15 -30 0 -46 -26 -33 -55 9 -19 18 -24
42 -22 29 2 30 3 30 55 0 28 -4 52 -10 52 -5 0 -10 -7 -10 -15z m-5 -55 c0
-27 -22 -39 -31 -16 -8 22 3 49 19 43 6 -2 12 -14 12 -27z"/>
<path d="M3528 1628 c-7 -23 7 -81 20 -86 11 -3 11 -1 0 17 -10 16 -10 25 -1
40 10 15 9 22 -1 30 -10 9 -15 8 -18 -1z"/>
<path d="M4242 1624 c-7 -8 -8 -15 -2 -19 6 -3 10 -19 10 -36 0 -19 5 -29 15
-29 13 0 13 3 3 20 -10 15 -10 25 -2 38 15 23 -6 45 -24 26z"/>
<path d="M3280 1613 c1 -5 9 -23 19 -42 l19 -35 16 32 c21 41 20 66 -1 27
l-16 -30 -9 28 c-9 24 -29 39 -28 20z"/>
<path d="M3370 1586 c0 -19 5 -38 10 -41 6 -4 10 10 10 34 0 23 -4 41 -10 41
-5 0 -10 -15 -10 -34z"/>
<path d="M3410 1601 c0 -10 9 -21 20 -24 32 -8 25 -30 -7 -23 -23 5 -25 4 -10
-5 10 -6 25 -8 33 -5 21 8 17 37 -6 43 -11 3 -20 10 -20 15 0 6 9 8 20 5 11
-3 20 -1 20 4 0 5 -11 9 -25 9 -18 0 -25 -5 -25 -19z"/>
<path d="M3480 1586 c0 -19 5 -38 10 -41 6 -4 10 10 10 34 0 23 -4 41 -10 41
-5 0 -10 -15 -10 -34z"/>
<path d="M3584 1595 c-8 -33 12 -56 45 -52 22 3 26 9 29 40 3 36 2 37 -32 37
-30 0 -37 -4 -42 -25z m54 -12 c4 -25 -22 -37 -38 -17 -10 11 -10 17 0 29 17
20 34 14 38 -12z"/>
<path d="M3680 1601 c0 -10 9 -21 20 -24 32 -8 25 -30 -7 -23 -23 5 -25 4 -10
-5 10 -6 25 -8 33 -5 21 8 17 37 -6 43 -11 3 -20 10 -20 15 0 6 9 8 20 5 11
-3 20 -1 20 4 0 5 -11 9 -25 9 -18 0 -25 -5 -25 -19z"/>
<path d="M3895 1607 c-12 -29 11 -69 38 -65 18 2 22 10 23 43 1 23 0 28 -3 13
-2 -14 -11 -32 -18 -38 -16 -13 -21 -7 -28 40 -3 22 -5 23 -12 7z"/>
<path d="M3985 1611 c-9 -9 -5 -60 5 -66 6 -4 10 6 10 24 0 18 7 34 18 40 15
9 14 10 -6 8 -13 -1 -25 -3 -27 -6z"/>
<path d="M4057 1613 c-12 -11 -8 -50 6 -61 7 -6 23 -10 35 -9 19 1 22 7 22 39
0 35 -2 38 -28 38 -16 0 -32 -3 -35 -7z m49 -18 c4 -8 0 -22 -7 -31 -11 -13
-14 -13 -27 0 -17 17 -9 46 13 46 9 0 18 -7 21 -15z"/>
<path d="M4151 1576 c1 -42 3 -41 13 7 9 41 36 35 36 -8 0 -19 5 -35 11 -35 6
0 9 16 7 38 -3 34 -5 37 -35 38 -32 1 -33 0 -32 -40z"/>
<path d="M4312 1608 c-15 -15 -15 -41 0 -56 15 -15 45 -16 53 -2 4 6 -3 9 -16
7 -12 -1 -24 4 -26 11 -3 7 5 12 22 12 20 0 26 4 23 18 -4 21 -39 27 -56 10z
m43 -8 c3 -5 -3 -10 -14 -10 -12 0 -21 5 -21 10 0 6 6 10 14 10 8 0 18 -4 21
-10z"/>
<path d="M7226 1535 c-9 -14 -12 -25 -6 -25 5 0 10 -16 10 -36 0 -21 4 -33 10
-29 6 3 10 19 10 35 0 15 6 31 13 33 9 4 8 8 -3 16 -13 10 -13 12 0 21 13 8
13 10 -1 10 -9 0 -24 -11 -33 -25z"/>
<path d="M7702 1543 c-11 -21 -4 -91 9 -99 5 -3 9 10 9 30 0 19 6 37 13 40 10
5 10 7 0 12 -18 8 -16 22 5 27 13 4 12 5 -5 6 -12 0 -26 -7 -31 -16z"/>
<path d="M7880 1546 c0 -8 -6 -17 -12 -20 -10 -5 -10 -7 0 -12 6 -3 13 -22 14
-42 l1 -37 4 35 c3 19 10 38 16 42 9 6 8 10 -2 17 -11 7 -10 11 5 20 18 10 18
10 -3 11 -13 0 -23 -6 -23 -14z"/>
<path d="M7392 1530 c-7 -11 -8 -20 -3 -20 5 0 11 -14 13 -32 5 -50 24 -44 23
7 -1 54 -15 73 -33 45z"/>
<path d="M8120 1520 c0 -16 5 -30 10 -30 6 0 10 14 10 30 0 17 -4 30 -10 30
-5 0 -10 -13 -10 -30z"/>
<path d="M7296 1514 c-9 -8 -16 -22 -16 -29 0 -7 7 -21 16 -29 30 -30 74 -13
74 29 0 42 -44 59 -74 29z m54 -29 c0 -18 -5 -25 -19 -25 -11 0 -23 5 -26 10
-11 18 3 40 25 40 15 0 20 -7 20 -25z"/>
<path d="M7470 1516 c-28 -35 11 -93 48 -70 35 22 22 84 -18 84 -10 0 -23 -7
-30 -14z m53 -18 c7 -21 -4 -38 -23 -38 -23 0 -34 16 -26 35 7 18 43 20 49 3z"/>
<path d="M7567 1523 c-15 -14 -6 -34 20 -44 19 -7 23 -13 15 -21 -8 -8 -16 -7
-28 3 -15 12 -17 12 -12 -1 2 -8 15 -15 29 -15 31 0 39 34 10 42 -12 3 -21 12
-21 20 0 10 6 12 21 8 15 -5 19 -4 15 4 -8 12 -39 15 -49 4z"/>
<path d="M7770 1516 c-28 -35 11 -93 48 -70 35 22 22 84 -18 84 -10 0 -23 -7
-30 -14z m53 -18 c7 -21 -4 -38 -23 -38 -23 0 -34 16 -26 35 7 18 43 20 49 3z"/>
<path d="M7941 1517 c-15 -15 -14 -52 2 -65 6 -6 24 -10 39 -9 26 2 28 5 28
42 0 37 -2 40 -29 42 -15 1 -33 -3 -40 -10z m52 -19 c7 -21 -4 -38 -23 -38
-10 0 -20 6 -23 13 -7 20 4 37 23 37 10 0 20 -6 23 -12z"/>
<path d="M8041 1516 c-10 -12 -7 -18 13 -31 34 -23 33 -37 -1 -29 -22 5 -25 4
-17 -6 16 -17 58 -8 62 12 2 12 -6 21 -23 28 -31 12 -25 30 8 23 18 -4 19 -3
7 6 -21 15 -35 14 -49 -3z"/>
<path d="M8120 1450 c0 -5 5 -10 10 -10 6 0 10 5 10 10 0 6 -4 10 -10 10 -5 0
-10 -4 -10 -10z"/>
<path d="M3830 1425 c0 -8 -5 -15 -11 -15 -8 0 -8 -4 -1 -12 6 -7 12 -26 15
-43 l4 -30 2 31 c0 16 6 35 13 42 9 9 9 12 0 12 -18 0 -14 18 6 23 13 4 11 5
-5 6 -14 1 -23 -5 -23 -14z"/>
<path d="M3437 1403 c-13 -12 -7 -23 18 -35 29 -13 23 -32 -8 -22 -17 5 -19 3
-11 -6 7 -6 20 -10 30 -8 27 5 30 35 5 43 -27 8 -27 29 -1 22 11 -3 20 -1 20
4 0 10 -43 12 -53 2z"/>
<path d="M3510 1381 c0 -36 25 -59 48 -44 19 11 29 73 13 73 -5 0 -11 -15 -13
-32 -2 -18 -7 -33 -13 -33 -5 0 -11 15 -13 33 -4 40 -22 43 -22 3z"/>
<path d="M3607 1403 c-12 -11 -8 -50 6 -61 7 -6 23 -10 35 -9 19 1 22 7 22 39
0 35 -2 38 -28 38 -16 0 -32 -3 -35 -7z m49 -18 c4 -8 0 -22 -7 -31 -11 -13
-14 -13 -27 0 -17 17 -9 46 13 46 9 0 18 -7 21 -15z"/>
<path d="M3697 1403 c-13 -12 -7 -23 18 -35 29 -13 23 -32 -8 -22 -17 5 -19 3
-11 -6 7 -6 20 -10 30 -8 27 5 30 35 5 43 -27 8 -27 29 -1 22 11 -3 20 -1 20
4 0 10 -43 12 -53 2z"/>
<path d="M3887 1403 c-13 -13 -7 -61 9 -67 24 -9 44 -7 44 4 0 6 -6 10 -12 9
-24 -3 -38 1 -38 11 0 6 14 10 30 10 32 0 37 9 18 28 -13 13 -41 16 -51 5z
m38 -13 c3 -5 -3 -10 -15 -10 -12 0 -18 5 -15 10 3 6 10 10 15 10 5 0 12 -4
15 -10z"/>
<path d="M3971 1368 c1 -44 3 -43 13 4 3 14 14 29 24 31 10 3 6 5 -10 6 -26 1
-28 -1 -27 -41z"/>
<path d="M4043 1370 c0 -25 2 -35 4 -22 2 12 2 32 0 45 -2 12 -4 2 -4 -23z"/>
<path d="M4077 1403 c-12 -11 -8 -50 6 -61 7 -6 23 -10 35 -9 19 1 22 7 22 39
0 35 -2 38 -28 38 -16 0 -32 -3 -35 -7z m49 -18 c4 -8 0 -22 -7 -31 -11 -13
-14 -13 -27 0 -17 17 -9 46 13 46 9 0 18 -7 21 -15z"/>
<path d="M4170 1391 c0 -10 9 -21 20 -24 32 -8 25 -30 -7 -23 -23 5 -25 4 -10
-5 10 -6 25 -8 33 -5 21 8 17 37 -6 43 -11 3 -20 10 -20 15 0 6 9 8 20 5 11
-3 20 -1 20 4 0 5 -11 9 -25 9 -18 0 -25 -5 -25 -19z"/>
</g>
</svg>
